TaiLeMongKawng.ufo
<glyph name="uni030C" format="2">
  <advance width="0"/>
  <unicode hex="030C"/>
  <anchor x="-547" y="0" name="_U"/>
  <outline>
    <contour>
      <point x="-362" y="606" type="line"/>
      <point x="-382" y="639.333"/>
      <point x="-423" y="688.333"/>
      <point x="-485" y="753" type="curve"/>
      <point x="-485" y="766" type="line"/>
      <point x="-425" y="766" type="line"/>
      <point x="-406.333" y="754"/>
      <point x="-388.167" y="740.333"/>
      <point x="-370.5" y="725" type="curve" smooth="yes"/>
      <point x="-352.833" y="709.667"/>
      <point x="-335.333" y="692.667"/>
      <point x="-318" y="674" type="curve"/>
      <point x="-297.333" y="694.667"/>
      <point x="-278" y="712.667"/>
      <point x="-260" y="728" type="curve" smooth="yes"/>
      <point x="-242" y="743.333"/>
      <point x="-225" y="756"/>
      <point x="-209" y="766" type="curve"/>
      <point x="-147" y="766" type="line"/>
      <point x="-147" y="753" type="line"/>
      <point x="-215" y="685"/>
      <point x="-256.667" y="636"/>
      <point x="-272" y="606" type="curve"/>
    </contour>
  </outline>
</glyph>
<glyph name="uni1044" format="2">
  <advance width="563"/>
  <unicode hex="1044"/>
  <outline>
    <contour>
      <point x="315" y="-10" type="curve" smooth="yes"/>
      <point x="263" y="-10"/>
      <point x="216.5" y="2"/>
      <point x="175.5" y="26" type="curve" smooth="yes"/>
      <point x="134.5" y="50"/>
      <point x="102.333" y="82.8333"/>
      <point x="79" y="124.5" type="curve" smooth="yes"/>
      <point x="55.6667" y="166.167"/>
      <point x="44" y="213.333"/>
      <point x="44" y="266" type="curve" smooth="yes"/>
      <point x="44" y="299.333"/>
      <point x="49.6667" y="332.5"/>
      <point x="61" y="365.5" type="curve" smooth="yes"/>
      <point x="72.3333" y="398.5"/>
      <point x="89.6667" y="428.667"/>
      <point x="113" y="456" type="curve" smooth="yes"/>
      <point x="136.333" y="483.333"/>
      <point x="165.667" y="505.167"/>
      <point x="201" y="521.5" type="curve" smooth="yes"/>
      <point x="236.333" y="537.833"/>
      <point x="278.333" y="546"/>
      <point x="327" y="546" type="curve" smooth="yes"/>
      <point x="366.333" y="546"/>
      <point x="403.833" y="535.667"/>
      <point x="439.5" y="515" type="curve" smooth="yes"/>
      <point x="475.167" y="494.333"/>
      <point x="504.333" y="467.333"/>
      <point x="527" y="434" type="curve"/>
      <point x="463" y="390" type="line"/>
      <point x="442.333" y="426.667"/>
      <point x="417.833" y="452.5"/>
      <point x="389.5" y="467.5" type="curve" smooth="yes"/>
      <point x="361.167" y="482.5"/>
      <point x="333.333" y="490"/>
      <point x="306" y="490" type="curve" smooth="yes"/>
      <point x="266" y="490"/>
      <point x="233" y="480.667"/>
      <point x="207" y="462" type="curve" smooth="yes"/>
      <point x="181" y="443.333"/>
      <point x="161.667" y="418.5"/>
      <point x="149" y="387.5" type="curve" smooth="yes"/>
      <point x="136.333" y="356.5"/>
      <point x="130" y="323"/>
      <point x="130" y="287" type="curve" smooth="yes"/>
      <point x="130" y="236.333"/>
      <point x="139.333" y="193"/>
      <point x="158" y="157" type="curve" smooth="yes"/>
      <point x="176.667" y="121"/>
      <point x="201.167" y="93.5"/>
      <point x="231.5" y="74.5" type="curve" smooth="yes"/>
      <point x="261.833" y="55.5"/>
      <point x="294.333" y="46"/>
      <point x="329" y="46" type="curve" smooth="yes"/>
      <point x="361" y="46"/>
      <point x="390.333" y="54"/>
      <point x="417" y="70" type="curve" smooth="yes"/>
      <point x="443.667" y="86"/>
      <point x="467.333" y="105.333"/>
      <point x="488" y="128" type="curve"/>
      <point x="525" y="107" type="line"/>
      <point x="228" y="-291" type="line"/>
      <point x="154" y="-248" type="line"/>
      <point x="357" y="-6" type="line"/>
      <point x="343" y="-8.66667"/>
      <point x="329" y="-10"/>
    </contour>
  </outline>
</glyph>
<glyph name="uni1045" format="2">
  <advance width="613"/>
  <unicode hex="1045"/>
  <outline>
    <contour>
      <point x="275" y="-293" type="curve" smooth="yes"/>
      <point x="235" y="-293"/>
      <point x="198.667" y="-285.167"/>
      <point x="166" y="-269.5" type="curve" smooth="yes"/>
      <point x="133.333" y="-253.833"/>
      <point x="104.667" y="-233.167"/>
      <point x="80" y="-207.5" type="curve" smooth="yes"/>
      <point x="55.3333" y="-181.833"/>
      <point x="35" y="-153.667"/>
      <point x="19" y="-123" type="curve"/>
      <point x="97" y="-88" type="line"/>
      <point x="105.667" y="-112.667"/>
      <point x="118.333" y="-136.333"/>
      <point x="135" y="-159" type="curve" smooth="yes"/>
      <point x="151.667" y="-181.667"/>
      <point x="172.667" y="-200.333"/>
      <point x="198" y="-215" type="curve" smooth="yes"/>
      <point x="223.333" y="-229.667"/>
      <point x="253" y="-237"/>
      <point x="287" y="-237" type="curve" smooth="yes"/>
      <point x="326.333" y="-237"/>
      <point x="360.333" y="-228.167"/>
      <point x="389" y="-210.5" type="curve" smooth="yes"/>
      <point x="417.667" y="-192.833"/>
      <point x="439.833" y="-162.667"/>
      <point x="455.5" y="-120" type="curve" smooth="yes"/>
      <point x="471.167" y="-77.3333"/>
      <point x="479" y="-19"/>
      <point x="479" y="55" type="curve" smooth="yes"/>
      <point x="479" y="262" type="line" smooth="yes"/>
      <point x="479" y="304.667"/>
      <point x="471.5" y="343.167"/>
      <point x="456.5" y="377.5" type="curve" smooth="yes"/>
      <point x="441.5" y="411.833"/>
      <point x="419.167" y="439.167"/>
      <point x="389.5" y="459.5" type="curve" smooth="yes"/>
      <point x="359.833" y="479.833"/>
      <point x="322.667" y="490"/>
      <point x="278" y="490" type="curve" smooth="yes"/>
      <point x="250" y="490"/>
      <point x="224.667" y="484"/>
      <point x="202" y="472" type="curve" smooth="yes"/>
      <point x="179.333" y="460"/>
      <point x="160.667" y="444.667"/>
      <point x="146" y="426" type="curve" smooth="yes"/>
      <point x="131.333" y="407.333"/>
      <point x="121.667" y="387.667"/>
      <point x="117" y="367" type="curve"/>
      <point x="127" y="377"/>
      <point x="139.667" y="384.833"/>
      <point x="155" y="390.5" type="curve" smooth="yes"/>
      <point x="170.333" y="396.167"/>
      <point x="184" y="399"/>
      <point x="196" y="399" type="curve" smooth="yes"/>
      <point x="220.667" y="399"/>
      <point x="243.333" y="393.167"/>
      <point x="264" y="381.5" type="curve" smooth="yes"/>
      <point x="284.667" y="369.833"/>
      <point x="301.333" y="353.833"/>
      <point x="314" y="333.5" type="curve" smooth="yes"/>
      <point x="326.667" y="313.167"/>
      <point x="333" y="289.667"/>
      <point x="333" y="263" type="curve" smooth="yes"/>
      <point x="333" y="236.333"/>
      <point x="326.333" y="212.167"/>
      <point x="313" y="190.5" type="curve" smooth="yes"/>
      <point x="299.667" y="168.833"/>
      <point x="281.833" y="151.667"/>
      <point x="259.5" y="139" type="curve" smooth="yes"/>
      <point x="237.167" y="126.333"/>
      <point x="211.667" y="120"/>
      <point x="183" y="120" type="curve" smooth="yes"/>
      <point x="155.667" y="120"/>
      <point x="130.333" y="126.5"/>
      <point x="107" y="139.5" type="curve" smooth="yes"/>
      <point x="83.6667" y="152.5"/>
      <point x="65" y="171"/>
      <point x="51" y="195" type="curve" smooth="yes"/>
      <point x="37" y="219"/>
      <point x="30" y="248"/>
      <point x="30" y="282" type="curve" smooth="yes"/>
      <point x="30" y="336.667"/>
      <point x="42.8333" y="383.667"/>
      <point x="68.5" y="423" type="curve" smooth="yes"/>
      <point x="94.1667" y="462.333"/>
      <point x="127.833" y="492.667"/>
      <point x="169.5" y="514" type="curve" smooth="yes"/>
      <point x="211.167" y="535.333"/>
      <point x="256" y="546"/>
      <point x="304" y="546" type="curve" smooth="yes"/>
      <point x="351.333" y="546"/>
      <point x="391.667" y="537.667"/>
      <point x="425" y="521" type="curve" smooth="yes"/>
      <point x="458.333" y="504.333"/>
      <point x="485.167" y="482.167"/>
      <point x="505.5" y="454.5" type="curve" smooth="yes"/>
      <point x="525.833" y="426.833"/>
      <point x="540.667" y="396.167"/>
      <point x="550" y="362.5" type="curve" smooth="yes"/>
      <point x="559.333" y="328.833"/>
      <point x="564" y="295"/>
      <point x="564" y="261" type="curve" smooth="yes"/>
      <point x="564" y="55" type="line" smooth="yes"/>
      <point x="564" y="-59"/>
      <point x="539.333" y="-145.5"/>
      <point x="490" y="-204.5" type="curve" smooth="yes"/>
      <point x="440.667" y="-263.5"/>
      <point x="369" y="-293"/>
    </contour>
    <contour>
      <point x="190" y="173" type="curve" smooth="yes"/>
      <point x="216.667" y="173"/>
      <point x="235.667" y="181.333"/>
      <point x="247" y="198" type="curve" smooth="yes"/>
      <point x="258.333" y="214.667"/>
      <point x="264" y="233.333"/>
      <point x="264" y="254" type="curve" smooth="yes"/>
      <point x="264" y="268"/>
      <point x="260.667" y="282"/>
      <point x="254" y="296" type="curve" smooth="yes"/>
      <point x="247.333" y="310"/>
      <point x="237.167" y="321.833"/>
      <point x="223.5" y="331.5" type="curve" smooth="yes"/>
      <point x="209.833" y="341.167"/>
      <point x="192.667" y="346"/>
      <point x="172" y="346" type="curve" smooth="yes"/>
      <point x="152" y="346"/>
      <point x="135.333" y="338.5"/>
      <point x="122" y="323.5" type="curve" smooth="yes"/>
      <point x="108.667" y="308.5"/>
      <point x="102" y="289"/>
      <point x="102" y="265" type="curve" smooth="yes"/>
      <point x="102" y="241.667"/>
      <point x="110.5" y="220.5"/>
      <point x="127.5" y="201.5" type="curve" smooth="yes"/>
      <point x="144.5" y="182.5"/>
      <point x="165.333" y="173"/>
    </contour>
  </outline>
</glyph>
<glyph name="uni1046" format="2">
  <advance width="670"/>
  <unicode hex="1046"/>
  <outline>
    <contour>
      <point x="335" y="-10" type="curve" smooth="yes"/>
      <point x="268.333" y="-10"/>
      <point x="213.833" y="3.5"/>
      <point x="171.5" y="30.5" type="curve" smooth="yes"/>
      <point x="129.167" y="57.5"/>
      <point x="98.1667" y="93.1667"/>
      <point x="78.5" y="137.5" type="curve" smooth="yes"/>
      <point x="58.8333" y="181.833"/>
      <point x="49" y="230"/>
      <point x="49" y="282" type="curve" smooth="yes"/>
      <point x="49" y="539" type="line" smooth="yes"/>
      <point x="49" y="566.333"/>
      <point x="51.3333" y="596.5"/>
      <point x="56" y="629.5" type="curve" smooth="yes"/>
      <point x="60.6667" y="662.5"/>
      <point x="69" y="695.333"/>
      <point x="81" y="728" type="curve" smooth="yes"/>
      <point x="93" y="760.667"/>
      <point x="109.833" y="790.667"/>
      <point x="131.5" y="818" type="curve" smooth="yes"/>
      <point x="153.167" y="845.333"/>
      <point x="181" y="867.167"/>
      <point x="215" y="883.5" type="curve" smooth="yes"/>
      <point x="249" y="899.833"/>
      <point x="290.667" y="908"/>
      <point x="340" y="908" type="curve" smooth="yes"/>
      <point x="376" y="908"/>
      <point x="408.5" y="905"/>
      <point x="437.5" y="899" type="curve" smooth="yes"/>
      <point x="466.5" y="893"/>
      <point x="494.667" y="883.167"/>
      <point x="522" y="869.5" type="curve" smooth="yes"/>
      <point x="549.333" y="855.833"/>
      <point x="577.667" y="836.667"/>
      <point x="607" y="812" type="curve"/>
      <point x="566" y="771" type="line"/>
      <point x="533.333" y="798.333"/>
      <point x="499.167" y="817.5"/>
      <point x="463.5" y="828.5" type="curve" smooth="yes"/>
      <point x="427.833" y="839.5"/>
      <point x="386.667" y="845"/>
      <point x="340" y="845" type="curve" smooth="yes"/>
      <point x="295.333" y="845"/>
      <point x="259.333" y="835.333"/>
      <point x="232" y="816" type="curve" smooth="yes"/>
      <point x="204.667" y="796.667"/>
      <point x="184" y="771.833"/>
      <point x="170" y="741.5" type="curve" smooth="yes"/>
      <point x="156" y="711.167"/>
      <point x="146.667" y="679"/>
      <point x="142" y="645" type="curve" smooth="yes"/>
      <point x="137.333" y="611"/>
      <point x="135" y="579"/>
      <point x="135" y="549" type="curve" smooth="yes"/>
      <point x="135" y="286" type="line" smooth="yes"/>
      <point x="135" y="240.667"/>
      <point x="143.167" y="199.833"/>
      <point x="159.5" y="163.5" type="curve" smooth="yes"/>
      <point x="175.833" y="127.167"/>
      <point x="200.333" y="98.5"/>
      <point x="233" y="77.5" type="curve" smooth="yes"/>
      <point x="265.667" y="56.5"/>
      <point x="306.333" y="46"/>
      <point x="355" y="46" type="curve" smooth="yes"/>
      <point x="421" y="46"/>
      <point x="468.333" y="62.3333"/>
      <point x="497" y="95" type="curve" smooth="yes"/>
      <point x="525.667" y="127.667"/>
      <point x="540" y="170"/>
      <point x="540" y="222" type="curve" smooth="yes"/>
      <point x="540" y="244.667"/>
      <point x="535.5" y="261.833"/>
      <point x="526.5" y="273.5" type="curve" smooth="yes"/>
      <point x="517.5" y="285.167"/>
      <point x="507.333" y="291"/>
      <point x="496" y="291" type="curve" smooth="yes"/>
      <point x="473.333" y="291"/>
      <point x="451" y="287.667"/>
      <point x="429" y="281" type="curve" smooth="yes"/>
      <point x="407" y="274.333"/>
      <point x="381" y="271"/>
      <point x="351" y="271" type="curve" smooth="yes"/>
      <point x="307" y="271"/>
      <point x="273.333" y="282.833"/>
      <point x="250" y="306.5" type="curve" smooth="yes"/>
      <point x="226.667" y="330.167"/>
      <point x="215" y="362.333"/>
      <point x="215" y="403" type="curve" smooth="yes"/>
      <point x="215" y="425"/>
      <point x="221" y="447"/>
      <point x="233" y="469" type="curve" smooth="yes"/>
      <point x="245" y="491"/>
      <point x="262.667" y="509.5"/>
      <point x="286" y="524.5" type="curve" smooth="yes"/>
      <point x="309.333" y="539.5"/>
      <point x="338" y="547"/>
      <point x="372" y="547" type="curve" smooth="yes"/>
      <point x="398.667" y="547"/>
      <point x="424" y="544.667"/>
      <point x="448" y="540" type="curve" smooth="yes"/>
      <point x="472" y="535.333"/>
      <point x="493.333" y="529.667"/>
      <point x="512" y="523" type="curve"/>
      <point x="500" y="477" type="line"/>
      <point x="484.667" y="481"/>
      <point x="465.5" y="484.333"/>
      <point x="442.5" y="487" type="curve" smooth="yes"/>
      <point x="419.5" y="489.667"/>
      <point x="399.333" y="491"/>
      <point x="382" y="491" type="curve" smooth="yes"/>
      <point x="351.333" y="491"/>
      <point x="329.333" y="481.833"/>
      <point x="316" y="463.5" type="curve" smooth="yes"/>
      <point x="302.667" y="445.167"/>
      <point x="296" y="425.333"/>
      <point x="296" y="404" type="curve" smooth="yes"/>
      <point x="296" y="380.667"/>
      <point x="302.167" y="362"/>
      <point x="314.5" y="348" type="curve" smooth="yes"/>
      <point x="326.833" y="334"/>
      <point x="342.667" y="327"/>
      <point x="362" y="327" type="curve" smooth="yes"/>
      <point x="384" y="327"/>
      <point x="402.333" y="328.833"/>
      <point x="417" y="332.5" type="curve" smooth="yes"/>
      <point x="431.667" y="336.167"/>
      <point x="446.667" y="339.833"/>
      <point x="462" y="343.5" type="curve" smooth="yes"/>
      <point x="477.333" y="347.167"/>
      <point x="496.667" y="349"/>
      <point x="520" y="349" type="curve" smooth="yes"/>
      <point x="548" y="349"/>
      <point x="569.667" y="341.667"/>
      <point x="585" y="327" type="curve" smooth="yes"/>
      <point x="600.333" y="312.333"/>
      <point x="611" y="295.333"/>
      <point x="617" y="276" type="curve" smooth="yes"/>
      <point x="623" y="256.667"/>
      <point x="626" y="239.333"/>
      <point x="626" y="224" type="curve" smooth="yes"/>
      <point x="626" y="180.667"/>
      <point x="616.167" y="141.167"/>
      <point x="596.5" y="105.5" type="curve" smooth="yes"/>
      <point x="576.833" y="69.8333"/>
      <point x="545.667" y="41.6667"/>
      <point x="503" y="21" type="curve" smooth="yes"/>
      <point x="460.333" y="0.333333"/>
      <point x="404.333" y="-10"/>
    </contour>
  </outline>
</glyph>
<glyph name="uni1049" format="2">
  <advance width="670"/>
  <unicode hex="1049"/>
  <outline>
    <contour>
      <point x="340" y="-293" type="curve" smooth="yes"/>
      <point x="291.333" y="-293"/>
      <point x="249.833" y="-285.333"/>
      <point x="215.5" y="-270" type="curve" smooth="yes"/>
      <point x="181.167" y="-254.667"/>
      <point x="153.167" y="-234.333"/>
      <point x="131.5" y="-209" type="curve" smooth="yes"/>
      <point x="109.833" y="-183.667"/>
      <point x="93" y="-155.667"/>
      <point x="81" y="-125" type="curve" smooth="yes"/>
      <point x="69" y="-94.3333"/>
      <point x="60.6667" y="-63.1667"/>
      <point x="56" y="-31.5" type="curve" smooth="yes"/>
      <point x="51.3333" y="0.166667"/>
      <point x="49" y="29.6667"/>
      <point x="49" y="57" type="curve" smooth="yes"/>
      <point x="49" y="254" type="line" smooth="yes"/>
      <point x="49" y="306"/>
      <point x="58.8333" y="354.167"/>
      <point x="78.5" y="398.5" type="curve" smooth="yes"/>
      <point x="98.1667" y="442.833"/>
      <point x="129.167" y="478.5"/>
      <point x="171.5" y="505.5" type="curve" smooth="yes"/>
      <point x="213.833" y="532.5"/>
      <point x="268.333" y="546"/>
      <point x="335" y="546" type="curve" smooth="yes"/>
      <point x="404.333" y="546"/>
      <point x="460.333" y="535.667"/>
      <point x="503" y="515" type="curve" smooth="yes"/>
      <point x="545.667" y="494.333"/>
      <point x="576.833" y="466.5"/>
      <point x="596.5" y="431.5" type="curve" smooth="yes"/>
      <point x="616.167" y="396.5"/>
      <point x="626" y="357"/>
      <point x="626" y="313" type="curve" smooth="yes"/>
      <point x="626" y="298.333"/>
      <point x="623" y="281.167"/>
      <point x="617" y="261.5" type="curve" smooth="yes"/>
      <point x="611" y="241.833"/>
      <point x="600.333" y="224.667"/>
      <point x="585" y="210" type="curve" smooth="yes"/>
      <point x="569.667" y="195.333"/>
      <point x="548" y="188"/>
      <point x="520" y="188" type="curve" smooth="yes"/>
      <point x="496.667" y="188"/>
      <point x="477.333" y="189.833"/>
      <point x="462" y="193.5" type="curve" smooth="yes"/>
      <point x="446.667" y="197.167"/>
      <point x="431.833" y="200.833"/>
      <point x="417.5" y="204.5" type="curve" smooth="yes"/>
      <point x="403.167" y="208.167"/>
      <point x="385.333" y="210"/>
      <point x="364" y="210" type="curve" smooth="yes"/>
      <point x="344" y="210"/>
      <point x="327.667" y="202"/>
      <point x="315" y="186" type="curve" smooth="yes"/>
      <point x="302.333" y="170"/>
      <point x="296" y="149.667"/>
      <point x="296" y="125" type="curve" smooth="yes"/>
      <point x="296" y="104.333"/>
      <point x="302.667" y="86"/>
      <point x="316" y="70" type="curve" smooth="yes"/>
      <point x="329.333" y="54"/>
      <point x="351.333" y="46"/>
      <point x="382" y="46" type="curve" smooth="yes"/>
      <point x="399.333" y="46"/>
      <point x="419.5" y="47.3333"/>
      <point x="442.5" y="50" type="curve" smooth="yes"/>
      <point x="465.5" y="52.6667"/>
      <point x="484.667" y="56"/>
      <point x="500" y="60" type="curve"/>
      <point x="512" y="14" type="line"/>
      <point x="493.333" y="7.33333"/>
      <point x="472" y="1.66667"/>
      <point x="448" y="-3" type="curve" smooth="yes"/>
      <point x="424" y="-7.66667"/>
      <point x="398.667" y="-10"/>
      <point x="372" y="-10" type="curve" smooth="yes"/>
      <point x="338" y="-10"/>
      <point x="309.333" y="-3.16667"/>
      <point x="286" y="10.5" type="curve" smooth="yes"/>
      <point x="262.667" y="24.1667"/>
      <point x="245" y="41.3333"/>
      <point x="233" y="62" type="curve" smooth="yes"/>
      <point x="221" y="82.6667"/>
      <point x="215" y="104"/>
      <point x="215" y="126" type="curve" smooth="yes"/>
      <point x="215" y="167.333"/>
      <point x="226.833" y="201"/>
      <point x="250.5" y="227" type="curve" smooth="yes"/>
      <point x="274.167" y="253"/>
      <point x="308.333" y="266"/>
      <point x="353" y="266" type="curve" smooth="yes"/>
      <point x="383" y="266"/>
      <point x="408.667" y="262.833"/>
      <point x="430" y="256.5" type="curve" smooth="yes"/>
      <point x="451.333" y="250.167"/>
      <point x="473.333" y="247"/>
      <point x="496" y="247" type="curve" smooth="yes"/>
      <point x="507.333" y="247"/>
      <point x="517.5" y="252.833"/>
      <point x="526.5" y="264.5" type="curve" smooth="yes"/>
      <point x="535.5" y="276.167"/>
      <point x="540" y="293"/>
      <point x="540" y="315" type="curve" smooth="yes"/>
      <point x="540" y="367"/>
      <point x="525.667" y="409.167"/>
      <point x="497" y="441.5" type="curve" smooth="yes"/>
      <point x="468.333" y="473.833"/>
      <point x="421" y="490"/>
      <point x="355" y="490" type="curve" smooth="yes"/>
      <point x="306.333" y="490"/>
      <point x="265.667" y="479.5"/>
      <point x="233" y="458.5" type="curve" smooth="yes"/>
      <point x="200.333" y="437.5"/>
      <point x="175.833" y="408.833"/>
      <point x="159.5" y="372.5" type="curve" smooth="yes"/>
      <point x="143.167" y="336.167"/>
      <point x="135" y="295.333"/>
      <point x="135" y="250" type="curve" smooth="yes"/>
      <point x="135" y="47" type="line" smooth="yes"/>
      <point x="135" y="17"/>
      <point x="137.5" y="-14"/>
      <point x="142.5" y="-46" type="curve" smooth="yes"/>
      <point x="147.5" y="-78"/>
      <point x="157" y="-107.833"/>
      <point x="171" y="-135.5" type="curve" smooth="yes"/>
      <point x="185" y="-163.167"/>
      <point x="205.5" y="-185.667"/>
      <point x="232.5" y="-203" type="curve" smooth="yes"/>
      <point x="259.5" y="-220.333"/>
      <point x="295.333" y="-229"/>
      <point x="340" y="-229" type="curve" smooth="yes"/>
      <point x="386.667" y="-229"/>
      <point x="427.833" y="-223.667"/>
      <point x="463.5" y="-213" type="curve" smooth="yes"/>
      <point x="499.167" y="-202.333"/>
      <point x="533.333" y="-183.333"/>
      <point x="566" y="-156" type="curve"/>
      <point x="607" y="-197" type="line"/>
      <point x="577.667" y="-221"/>
      <point x="549.333" y="-240"/>
      <point x="522" y="-254" type="curve" smooth="yes"/>
      <point x="494.667" y="-268"/>
      <point x="466.5" y="-278"/>
      <point x="437.5" y="-284" type="curve" smooth="yes"/>
      <point x="408.5" y="-290"/>
      <point x="376" y="-293"/>
    </contour>
  </outline>
</glyph>
<glyph name="uni1951" format="2">
  <advance width="664"/>
  <unicode hex="1951"/>
  <anchor x="92" y="0" name="U"/>
  <outline>
    <contour>
      <point x="359" y="-10" type="curve" smooth="yes"/>
      <point x="311" y="-10"/>
      <point x="270.833" y="2.83333"/>
      <point x="238.5" y="28.5" type="curve" smooth="yes"/>
      <point x="206.167" y="54.1667"/>
      <point x="190" y="94.3333"/>
      <point x="190" y="149" type="curve" smooth="yes"/>
      <point x="190" y="180.333"/>
      <point x="200.167" y="209.833"/>
      <point x="220.5" y="237.5" type="curve" smooth="yes"/>
      <point x="240.833" y="265.167"/>
      <point x="272.333" y="287.5"/>
      <point x="315" y="304.5" type="curve" smooth="yes"/>
      <point x="357.667" y="321.5"/>
      <point x="412" y="330"/>
      <point x="478" y="330" type="curve" smooth="yes"/>
      <point x="488" y="330"/>
      <point x="488" y="330"/>
      <point x="499" y="330" type="curve" smooth="yes"/>
      <point x="506.333" y="330"/>
      <point x="513.667" y="329.667"/>
      <point x="521" y="329" type="curve"/>
      <point x="513" y="375.667"/>
      <point x="501.5" y="409.833"/>
      <point x="486.5" y="431.5" type="curve" smooth="yes"/>
      <point x="471.5" y="453.167"/>
      <point x="454.167" y="467"/>
      <point x="434.5" y="473" type="curve" smooth="yes"/>
      <point x="414.833" y="479"/>
      <point x="394" y="482"/>
      <point x="372" y="482" type="curve" smooth="yes"/>
      <point x="336.667" y="482"/>
      <point x="303.667" y="469.5"/>
      <point x="273" y="444.5" type="curve" smooth="yes"/>
      <point x="242.333" y="419.5"/>
      <point x="220.333" y="384.333"/>
      <point x="207" y="339" type="curve"/>
      <point x="122" y="333" type="line"/>
      <point x="121.333" y="341"/>
      <point x="121" y="351.833"/>
      <point x="121" y="365.5" type="curve" smooth="yes"/>
      <point x="121" y="379.167"/>
      <point x="120" y="392.833"/>
      <point x="118" y="406.5" type="curve" smooth="yes"/>
      <point x="116" y="420.167"/>
      <point x="111.667" y="431.833"/>
      <point x="105" y="441.5" type="curve" smooth="yes"/>
      <point x="98.3333" y="451.167"/>
      <point x="88.3333" y="456"/>
      <point x="75" y="456" type="curve" smooth="yes"/>
      <point x="58.3333" y="456"/>
      <point x="44.3333" y="452.167"/>
      <point x="33" y="444.5" type="curve" smooth="yes"/>
      <point x="21.6667" y="436.833"/>
      <point x="12.3333" y="426.667"/>
      <point x="5" y="414" type="curve"/>
      <point x="-10" y="454" type="line"/>
      <point x="5.33333" y="471.333"/>
      <point x="22.5" y="486.667"/>
      <point x="41.5" y="500" type="curve" smooth="yes"/>
      <point x="60.5" y="513.333"/>
      <point x="80.3333" y="520"/>
      <point x="101" y="520" type="curve" smooth="yes"/>
      <point x="131" y="520"/>
      <point x="153.5" y="511.667"/>
      <point x="168.5" y="495" type="curve" smooth="yes"/>
      <point x="183.5" y="478.333"/>
      <point x="194" y="459.333"/>
      <point x="200" y="438" type="curve"/>
      <point x="222.667" y="469.333"/>
      <point x="250.5" y="495.167"/>
      <point x="283.5" y="515.5" type="curve" smooth="yes"/>
      <point x="316.5" y="535.833"/>
      <point x="350.333" y="546"/>
      <point x="385" y="546" type="curve" smooth="yes"/>
      <point x="407.667" y="546"/>
      <point x="430.167" y="543.667"/>
      <point x="452.5" y="539" type="curve" smooth="yes"/>
      <point x="474.833" y="534.333"/>
      <point x="496.167" y="524.833"/>
      <point x="516.5" y="510.5" type="curve" smooth="yes"/>
      <point x="536.833" y="496.167"/>
      <point x="554.667" y="475"/>
      <point x="570" y="447" type="curve" smooth="yes"/>
      <point x="585.333" y="419"/>
      <point x="597.5" y="382.167"/>
      <point x="606.5" y="336.5" type="curve" smooth="yes"/>
      <point x="615.5" y="290.833"/>
      <point x="620" y="233.667"/>
      <point x="620" y="165" type="curve" smooth="yes"/>
      <point x="620" y="138.333"/>
      <point x="619.833" y="111.833"/>
      <point x="619.5" y="85.5" type="curve" smooth="yes"/>
      <point x="619.167" y="59.1667"/>
      <point x="618.667" y="37.3333"/>
      <point x="618" y="20" type="curve"/>
      <point x="533" y="-10" type="line"/>
      <point x="534" y="49" type="line"/>
      <point x="511.333" y="32.3333"/>
      <point x="485.167" y="18.3333"/>
      <point x="455.5" y="7" type="curve" smooth="yes"/>
      <point x="425.833" y="-4.33333"/>
      <point x="393.667" y="-10"/>
    </contour>
    <contour>
      <point x="379" y="54" type="curve" smooth="yes"/>
      <point x="406.333" y="54"/>
      <point x="434.333" y="58.5"/>
      <point x="463" y="67.5" type="curve" smooth="yes"/>
      <point x="491.667" y="76.5"/>
      <point x="515.333" y="90.3333"/>
      <point x="534" y="109" type="curve"/>
      <point x="534" y="148" type="line" smooth="yes"/>
      <point x="534" y="171.333"/>
      <point x="533.5" y="193.333"/>
      <point x="532.5" y="214" type="curve" smooth="yes"/>
      <point x="531.5" y="234.667"/>
      <point x="530.333" y="253.667"/>
      <point x="529" y="271" type="curve"/>
      <point x="510.333" y="273"/>
      <point x="492.667" y="274"/>
      <point x="476" y="274" type="curve" smooth="yes"/>
      <point x="428.667" y="274"/>
      <point x="390.667" y="268"/>
      <point x="362" y="256" type="curve" smooth="yes"/>
      <point x="333.333" y="244"/>
      <point x="312.667" y="228.5"/>
      <point x="300" y="209.5" type="curve" smooth="yes"/>
      <point x="287.333" y="190.5"/>
      <point x="281" y="170"/>
      <point x="281" y="148" type="curve" smooth="yes"/>
      <point x="281" y="118"/>
      <point x="290.167" y="94.8333"/>
      <point x="308.5" y="78.5" type="curve" smooth="yes"/>
      <point x="326.833" y="62.1667"/>
      <point x="350.333" y="54"/>
    </contour>
  </outline>
</glyph>
<glyph name="uni1952" format="2">
  <advance width="536"/>
  <unicode hex="1952"/>
  <anchor x="43" y="0" name="U"/>
  <outline>
    <contour>
      <point x="58" y="-10" type="line"/>
      <point x="60.6667" y="34.6667"/>
      <point x="62.3333" y="79.8333"/>
      <point x="63" y="125.5" type="curve" smooth="yes"/>
      <point x="63.6667" y="171.167"/>
      <point x="64" y="221.333"/>
      <point x="64" y="276" type="curve" smooth="yes"/>
      <point x="64" y="310"/>
      <point x="63.3333" y="344"/>
      <point x="62" y="378" type="curve" smooth="yes"/>
      <point x="60.6667" y="412"/>
      <point x="58.8333" y="442.333"/>
      <point x="56.5" y="469" type="curve" smooth="yes"/>
      <point x="54.1667" y="495.667"/>
      <point x="51.6667" y="515.333"/>
      <point x="49" y="528" type="curve"/>
      <point x="131" y="546" type="line"/>
      <point x="137" y="520"/>
      <point x="141.667" y="485.667"/>
      <point x="145" y="443" type="curve"/>
      <point x="162.333" y="464.333"/>
      <point x="182.667" y="482.667"/>
      <point x="206" y="498" type="curve" smooth="yes"/>
      <point x="229.333" y="513.333"/>
      <point x="253.167" y="525.167"/>
      <point x="277.5" y="533.5" type="curve" smooth="yes"/>
      <point x="301.833" y="541.833"/>
      <point x="324" y="546"/>
      <point x="344" y="546" type="curve" smooth="yes"/>
      <point x="387.333" y="546"/>
      <point x="419.5" y="536"/>
      <point x="440.5" y="516" type="curve" smooth="yes"/>
      <point x="461.5" y="496"/>
      <point x="475.333" y="467.333"/>
      <point x="482" y="430" type="curve" smooth="yes"/>
      <point x="488.667" y="392.667"/>
      <point x="492" y="348"/>
      <point x="492" y="296" type="curve" smooth="yes"/>
      <point x="492" y="274.667"/>
      <point x="491.333" y="250.167"/>
      <point x="490" y="222.5" type="curve" smooth="yes"/>
      <point x="488.667" y="194.833"/>
      <point x="486.833" y="167.167"/>
      <point x="484.5" y="139.5" type="curve" smooth="yes"/>
      <point x="482.167" y="111.833"/>
      <point x="479.667" y="86.5"/>
      <point x="477" y="63.5" type="curve" smooth="yes"/>
      <point x="474.333" y="40.5"/>
      <point x="471.667" y="22.6667"/>
      <point x="469" y="10" type="curve"/>
      <point x="381" y="-10" type="line"/>
      <point x="386.333" y="27.3333"/>
      <point x="390.833" y="65.6667"/>
      <point x="394.5" y="105" type="curve" smooth="yes"/>
      <point x="398.167" y="144.333"/>
      <point x="401" y="181.333"/>
      <point x="403" y="216" type="curve" smooth="yes"/>
      <point x="405" y="250.667"/>
      <point x="406" y="279.333"/>
      <point x="406" y="302" type="curve" smooth="yes"/>
      <point x="406" y="344.667"/>
      <point x="404.167" y="379.167"/>
      <point x="400.5" y="405.5" type="curve" smooth="yes"/>
      <point x="396.833" y="431.833"/>
      <point x="389" y="451.167"/>
      <point x="377" y="463.5" type="curve" smooth="yes"/>
      <point x="365" y="475.833"/>
      <point x="346.333" y="482"/>
      <point x="321" y="482" type="curve" smooth="yes"/>
      <point x="278.333" y="482"/>
      <point x="242.667" y="470.667"/>
      <point x="214" y="448" type="curve" smooth="yes"/>
      <point x="185.333" y="425.333"/>
      <point x="163.333" y="399.333"/>
      <point x="148" y="370" type="curve"/>
      <point x="148.667" y="355.333"/>
      <point x="149.167" y="340.333"/>
      <point x="149.5" y="325" type="curve" smooth="yes"/>
      <point x="149.833" y="309.667"/>
      <point x="150" y="294.333"/>
      <point x="150" y="279" type="curve" smooth="yes"/>
      <point x="150" y="253.667"/>
      <point x="149.667" y="223.833"/>
      <point x="149" y="189.5" type="curve" smooth="yes"/>
      <point x="148.333" y="155.167"/>
      <point x="147.5" y="121.833"/>
      <point x="146.5" y="89.5" type="curve" smooth="yes"/>
      <point x="145.5" y="57.1667"/>
      <point x="144.333" y="30.6667"/>
      <point x="143" y="10" type="curve"/>
    </contour>
  </outline>
</glyph>
<glyph name="uni1955" format="2">
  <advance width="608"/>
  <unicode hex="1955"/>
  <anchor x="63" y="0" name="U"/>
  <outline>
    <contour>
      <point x="137" y="-10" type="curve" smooth="yes"/>
      <point x="112.333" y="-10"/>
      <point x="94.3333" y="-0.166667"/>
      <point x="83" y="19.5" type="curve" smooth="yes"/>
      <point x="71.6667" y="39.1667"/>
      <point x="64.5" y="68.3333"/>
      <point x="61.5" y="107" type="curve" smooth="yes"/>
      <point x="58.5" y="145.667"/>
      <point x="57" y="194"/>
      <point x="57" y="252" type="curve" smooth="yes"/>
      <point x="57" y="298" type="line" smooth="yes"/>
      <point x="57" y="327.333"/>
      <point x="56.1667" y="358.167"/>
      <point x="54.5" y="390.5" type="curve" smooth="yes"/>
      <point x="52.8333" y="422.833"/>
      <point x="49.3333" y="462.333"/>
      <point x="44" y="509" type="curve"/>
      <point x="127" y="525" type="line"/>
      <point x="129.667" y="507.667"/>
      <point x="132.167" y="484.667"/>
      <point x="134.5" y="456" type="curve" smooth="yes"/>
      <point x="136.833" y="427.333"/>
      <point x="138.833" y="398"/>
      <point x="140.5" y="368" type="curve" smooth="yes"/>
      <point x="142.167" y="338"/>
      <point x="143" y="312"/>
      <point x="143" y="290" type="curve" smooth="yes"/>
      <point x="143" y="233" type="line" smooth="yes"/>
      <point x="143" y="192.333"/>
      <point x="143.333" y="160"/>
      <point x="144" y="136" type="curve" smooth="yes"/>
      <point x="144.667" y="112"/>
      <point x="145.833" y="94"/>
      <point x="147.5" y="82" type="curve" smooth="yes"/>
      <point x="149.167" y="70"/>
      <point x="151.5" y="62.1667"/>
      <point x="154.5" y="58.5" type="curve" smooth="yes"/>
      <point x="157.5" y="54.8333"/>
      <point x="161.333" y="53"/>
      <point x="166" y="53" type="curve" smooth="yes"/>
      <point x="176" y="53"/>
      <point x="189.5" y="64.6667"/>
      <point x="206.5" y="88" type="curve" smooth="yes"/>
      <point x="223.5" y="111.333"/>
      <point x="238" y="141.333"/>
      <point x="250" y="178" type="curve"/>
      <point x="306" y="206" type="line"/>
      <point x="324.667" y="163.333"/>
      <point x="343.833" y="127.333"/>
      <point x="363.5" y="98" type="curve" smooth="yes"/>
      <point x="383.167" y="68.6667"/>
      <point x="404.667" y="54"/>
      <point x="428" y="54" type="curve" smooth="yes"/>
      <point x="441.333" y="54"/>
      <point x="453" y="73.5"/>
      <point x="463" y="112.5" type="curve" smooth="yes"/>
      <point x="473" y="151.5"/>
      <point x="478" y="214.333"/>
      <point x="478" y="301" type="curve" smooth="yes"/>
      <point x="478" y="333"/>
      <point x="477.167" y="368.5"/>
      <point x="475.5" y="407.5" type="curve" smooth="yes"/>
      <point x="473.833" y="446.5"/>
      <point x="470.333" y="489.333"/>
      <point x="465" y="536" type="curve"/>
      <point x="549" y="546" type="line"/>
      <point x="552.333" y="519.333"/>
      <point x="555.167" y="489.5"/>
      <point x="557.5" y="456.5" type="curve" smooth="yes"/>
      <point x="559.833" y="423.5"/>
      <point x="561.5" y="391.5"/>
      <point x="562.5" y="360.5" type="curve" smooth="yes"/>
      <point x="563.5" y="329.5"/>
      <point x="564" y="304"/>
      <point x="564" y="284" type="curve" smooth="yes"/>
      <point x="564" y="210"/>
      <point x="558.167" y="151.5"/>
      <point x="546.5" y="108.5" type="curve" smooth="yes"/>
      <point x="534.833" y="65.5"/>
      <point x="518.333" y="35"/>
      <point x="497" y="17" type="curve" smooth="yes"/>
      <point x="475.667" y="-1"/>
      <point x="450.667" y="-10"/>
      <point x="422" y="-10" type="curve" smooth="yes"/>
      <point x="396" y="-10"/>
      <point x="372.5" y="-2.83333"/>
      <point x="351.5" y="11.5" type="curve" smooth="yes"/>
      <point x="330.5" y="25.8333"/>
      <point x="313" y="42.8333"/>
      <point x="299" y="62.5" type="curve" smooth="yes"/>
      <point x="285" y="82.1667"/>
      <point x="274.667" y="99.6667"/>
      <point x="268" y="115" type="curve"/>
      <point x="260.667" y="98.3333"/>
      <point x="250.833" y="80.3333"/>
      <point x="238.5" y="61" type="curve" smooth="yes"/>
      <point x="226.167" y="41.6667"/>
      <point x="211.5" y="25"/>
      <point x="194.5" y="11" type="curve" smooth="yes"/>
      <point x="177.5" y="-3"/>
      <point x="158.333" y="-10"/>
    </contour>
  </outline>
</glyph>
<glyph name="uni1956" format="2">
  <advance width="902"/>
  <unicode hex="1956"/>
  <anchor x="219" y="0" name="U"/>
  <outline>
    <contour>
      <point x="256" y="-10" type="curve" smooth="yes"/>
      <point x="185.333" y="-10"/>
      <point x="134.5" y="14.3333"/>
      <point x="103.5" y="63" type="curve" smooth="yes"/>
      <point x="72.5" y="111.667"/>
      <point x="57" y="180.333"/>
      <point x="57" y="269" type="curve" smooth="yes"/>
      <point x="57" y="365" type="line" smooth="yes"/>
      <point x="57" y="384.333"/>
      <point x="55.8333" y="407"/>
      <point x="53.5" y="433" type="curve" smooth="yes"/>
      <point x="51.1667" y="459"/>
      <point x="48" y="483.333"/>
      <point x="44" y="506" type="curve"/>
      <point x="127" y="542" type="line"/>
      <point x="131" y="526.667"/>
      <point x="134.167" y="511"/>
      <point x="136.5" y="495" type="curve" smooth="yes"/>
      <point x="138.833" y="479"/>
      <point x="140.333" y="464"/>
      <point x="141" y="450" type="curve"/>
      <point x="166.333" y="477.333"/>
      <point x="194.167" y="500.167"/>
      <point x="224.5" y="518.5" type="curve" smooth="yes"/>
      <point x="254.833" y="536.833"/>
      <point x="284.667" y="546"/>
      <point x="314" y="546" type="curve" smooth="yes"/>
      <point x="356.667" y="546"/>
      <point x="393.167" y="537.833"/>
      <point x="423.5" y="521.5" type="curve" smooth="yes"/>
      <point x="453.833" y="505.167"/>
      <point x="477.667" y="482"/>
      <point x="495" y="452" type="curve"/>
      <point x="530.333" y="484"/>
      <point x="567.5" y="507.667"/>
      <point x="606.5" y="523" type="curve" smooth="yes"/>
      <point x="645.5" y="538.333"/>
      <point x="680" y="546"/>
      <point x="710" y="546" type="curve" smooth="yes"/>
      <point x="753.333" y="546"/>
      <point x="785.5" y="536.167"/>
      <point x="806.5" y="516.5" type="curve" smooth="yes"/>
      <point x="827.5" y="496.833"/>
      <point x="841.333" y="467.5"/>
      <point x="848" y="428.5" type="curve" smooth="yes"/>
      <point x="854.667" y="389.5"/>
      <point x="858" y="341"/>
      <point x="858" y="283" type="curve" smooth="yes"/>
      <point x="858" y="261"/>
      <point x="857" y="234.333"/>
      <point x="855" y="203" type="curve" smooth="yes"/>
      <point x="853" y="171.667"/>
      <point x="850.333" y="139.167"/>
      <point x="847" y="105.5" type="curve" smooth="yes"/>
      <point x="843.667" y="71.8333"/>
      <point x="839.667" y="40"/>
      <point x="835" y="10" type="curve"/>
      <point x="747" y="-10" type="line"/>
      <point x="752.333" y="27.3333"/>
      <point x="756.833" y="65.6667"/>
      <point x="760.5" y="105" type="curve" smooth="yes"/>
      <point x="764.167" y="144.333"/>
      <point x="767" y="181.333"/>
      <point x="769" y="216" type="curve" smooth="yes"/>
      <point x="771" y="250.667"/>
      <point x="772" y="279.333"/>
      <point x="772" y="302" type="curve" smooth="yes"/>
      <point x="772" y="344.667"/>
      <point x="770.167" y="379.167"/>
      <point x="766.5" y="405.5" type="curve" smooth="yes"/>
      <point x="762.833" y="431.833"/>
      <point x="755" y="451.167"/>
      <point x="743" y="463.5" type="curve" smooth="yes"/>
      <point x="731" y="475.833"/>
      <point x="712.333" y="482"/>
      <point x="687" y="482" type="curve" smooth="yes"/>
      <point x="650.333" y="482"/>
      <point x="617.333" y="473.167"/>
      <point x="588" y="455.5" type="curve" smooth="yes"/>
      <point x="558.667" y="437.833"/>
      <point x="535.333" y="419"/>
      <point x="518" y="399" type="curve"/>
      <point x="522.667" y="382.333"/>
      <point x="526.333" y="364.833"/>
      <point x="529" y="346.5" type="curve" smooth="yes"/>
      <point x="531.667" y="328.167"/>
      <point x="533" y="308.667"/>
      <point x="533" y="288" type="curve" smooth="yes"/>
      <point x="533" y="269"/>
      <point x="533" y="269"/>
      <point x="533" y="236" type="curve" smooth="yes"/>
      <point x="533" y="214"/>
      <point x="532.667" y="189.833"/>
      <point x="532" y="163.5" type="curve" smooth="yes"/>
      <point x="531.333" y="137.167"/>
      <point x="530.833" y="110.5"/>
      <point x="530.5" y="83.5" type="curve" smooth="yes"/>
      <point x="530.167" y="56.5"/>
      <point x="529.333" y="32"/>
      <point x="528" y="10" type="curve"/>
      <point x="443" y="-10" type="line"/>
      <point x="444.333" y="6"/>
      <point x="445.167" y="22.1667"/>
      <point x="445.5" y="38.5" type="curve" smooth="yes"/>
      <point x="445.833" y="54.8333"/>
      <point x="446.333" y="71.3333"/>
      <point x="447" y="88" type="curve"/>
      <point x="416.333" y="56.6667"/>
      <point x="382.833" y="32.5"/>
      <point x="346.5" y="15.5" type="curve" smooth="yes"/>
      <point x="310.167" y="-1.5"/>
      <point x="280" y="-10"/>
    </contour>
    <contour>
      <point x="277" y="54" type="curve" smooth="yes"/>
      <point x="318.333" y="54"/>
      <point x="351.5" y="63.6667"/>
      <point x="376.5" y="83" type="curve" smooth="yes"/>
      <point x="401.5" y="102.333"/>
      <point x="419.5" y="128.667"/>
      <point x="430.5" y="162" type="curve" smooth="yes"/>
      <point x="441.5" y="195.333"/>
      <point x="447" y="233"/>
      <point x="447" y="275" type="curve" smooth="yes"/>
      <point x="447" y="338.333"/>
      <point x="436.333" y="388.667"/>
      <point x="415" y="426" type="curve" smooth="yes"/>
      <point x="393.667" y="463.333"/>
      <point x="355.333" y="482"/>
      <point x="300" y="482" type="curve" smooth="yes"/>
      <point x="247.333" y="482"/>
      <point x="208" y="462.333"/>
      <point x="182" y="423" type="curve" smooth="yes"/>
      <point x="156" y="383.667"/>
      <point x="143" y="332.333"/>
      <point x="143" y="269" type="curve" smooth="yes"/>
      <point x="143" y="205.667"/>
      <point x="153.667" y="154"/>
      <point x="175" y="114" type="curve" smooth="yes"/>
      <point x="196.333" y="74"/>
      <point x="230.333" y="54"/>
    </contour>
  </outline>
</glyph>
<glyph name="uni195A" format="2">
  <advance width="831"/>
  <unicode hex="195A"/>
  <anchor x="161" y="0" name="U"/>
  <outline>
    <contour>
      <point x="208" y="-10" type="curve" smooth="yes"/>
      <point x="164.667" y="-10"/>
      <point x="132.167" y="-0.166667"/>
      <point x="110.5" y="19.5" type="curve" smooth="yes"/>
      <point x="88.8333" y="39.1667"/>
      <point x="74.3333" y="68.5"/>
      <point x="67" y="107.5" type="curve" smooth="yes"/>
      <point x="59.6667" y="146.5"/>
      <point x="56" y="195"/>
      <point x="56" y="253" type="curve" smooth="yes"/>
      <point x="56" y="276" type="line" smooth="yes"/>
      <point x="56" y="306.667"/>
      <point x="55.5" y="337.167"/>
      <point x="54.5" y="367.5" type="curve" smooth="yes"/>
      <point x="53.5" y="397.833"/>
      <point x="52.1667" y="425.833"/>
      <point x="50.5" y="451.5" type="curve" smooth="yes"/>
      <point x="48.8333" y="477.167"/>
      <point x="46.6667" y="497.667"/>
      <point x="44" y="513" type="curve"/>
      <point x="126" y="533" type="line"/>
      <point x="131.333" y="505"/>
      <point x="135.333" y="468.5"/>
      <point x="138" y="423.5" type="curve" smooth="yes"/>
      <point x="140.667" y="378.5"/>
      <point x="142" y="330.333"/>
      <point x="142" y="279" type="curve" smooth="yes"/>
      <point x="142" y="260" type="line" smooth="yes"/>
      <point x="142" y="208"/>
      <point x="144.167" y="167"/>
      <point x="148.5" y="137" type="curve" smooth="yes"/>
      <point x="152.833" y="107"/>
      <point x="161.333" y="85.6667"/>
      <point x="174" y="73" type="curve" smooth="yes"/>
      <point x="186.667" y="60.3333"/>
      <point x="205.667" y="54"/>
      <point x="231" y="54" type="curve" smooth="yes"/>
      <point x="260.333" y="54"/>
      <point x="287.5" y="59.6667"/>
      <point x="312.5" y="71" type="curve" smooth="yes"/>
      <point x="337.5" y="82.3333"/>
      <point x="359.333" y="96"/>
      <point x="378" y="112" type="curve"/>
      <point x="368.667" y="136"/>
      <point x="362" y="161"/>
      <point x="358" y="187" type="curve" smooth="yes"/>
      <point x="354" y="213"/>
      <point x="352" y="236.333"/>
      <point x="352" y="257" type="curve" smooth="yes"/>
      <point x="352" y="296" type="line" smooth="yes"/>
      <point x="352" y="306.667"/>
      <point x="352.667" y="321.833"/>
      <point x="354" y="341.5" type="curve" smooth="yes"/>
      <point x="355.333" y="361.167"/>
      <point x="358" y="382.667"/>
      <point x="362" y="406" type="curve" smooth="yes"/>
      <point x="366" y="429.333"/>
      <point x="372.5" y="451.667"/>
      <point x="381.5" y="473" type="curve" smooth="yes"/>
      <point x="390.5" y="494.333"/>
      <point x="402.833" y="511.833"/>
      <point x="418.5" y="525.5" type="curve" smooth="yes"/>
      <point x="434.167" y="539.167"/>
      <point x="453.667" y="546"/>
      <point x="477" y="546" type="curve" smooth="yes"/>
      <point x="484.333" y="546"/>
      <point x="493.5" y="544.333"/>
      <point x="504.5" y="541" type="curve" smooth="yes"/>
      <point x="515.5" y="537.667"/>
      <point x="528.333" y="531.667"/>
      <point x="543" y="523" type="curve"/>
      <point x="526" y="490" type="line"/>
      <point x="521.333" y="492"/>
      <point x="515.333" y="494.167"/>
      <point x="508" y="496.5" type="curve" smooth="yes"/>
      <point x="500.667" y="498.833"/>
      <point x="492.333" y="500"/>
      <point x="483" y="500" type="curve" smooth="yes"/>
      <point x="463.667" y="500"/>
      <point x="450.333" y="487.667"/>
      <point x="443" y="463" type="curve" smooth="yes"/>
      <point x="435.667" y="438.333"/>
      <point x="432" y="401.333"/>
      <point x="432" y="352" type="curve"/>
      <point x="447.333" y="378"/>
      <point x="468.833" y="400.667"/>
      <point x="496.5" y="420" type="curve" smooth="yes"/>
      <point x="524.167" y="439.333"/>
      <point x="555" y="449"/>
      <point x="589" y="449" type="curve" smooth="yes"/>
      <point x="624.333" y="449"/>
      <point x="654.5" y="441.5"/>
      <point x="679.5" y="426.5" type="curve" smooth="yes"/>
      <point x="704.5" y="411.5"/>
      <point x="724.833" y="391.333"/>
      <point x="740.5" y="366" type="curve" smooth="yes"/>
      <point x="756.167" y="340.667"/>
      <point x="767.833" y="312.833"/>
      <point x="775.5" y="282.5" type="curve" smooth="yes"/>
      <point x="783.167" y="252.167"/>
      <point x="787" y="222"/>
      <point x="787" y="192" type="curve" smooth="yes"/>
      <point x="787" y="179" type="line" smooth="yes"/>
      <point x="787" y="159.667"/>
      <point x="786.167" y="135.5"/>
      <point x="784.5" y="106.5" type="curve" smooth="yes"/>
      <point x="782.833" y="77.5"/>
      <point x="780.333" y="45.3333"/>
      <point x="777" y="10" type="curve"/>
      <point x="692" y="-10" type="line"/>
      <point x="693.333" y="3.33333"/>
      <point x="694.667" y="17.1667"/>
      <point x="696" y="31.5" type="curve" smooth="yes"/>
      <point x="697.333" y="45.8333"/>
      <point x="698.333" y="61"/>
      <point x="699" y="77" type="curve"/>
      <point x="666.333" y="45"/>
      <point x="637.167" y="22.5"/>
      <point x="611.5" y="9.5" type="curve" smooth="yes"/>
      <point x="585.833" y="-3.5"/>
      <point x="560" y="-10"/>
      <point x="534" y="-10" type="curve" smooth="yes"/>
      <point x="502.667" y="-10"/>
      <point x="476" y="-2.5"/>
      <point x="454" y="12.5" type="curve" smooth="yes"/>
      <point x="432" y="27.5"/>
      <point x="413.667" y="46.3333"/>
      <point x="399" y="69" type="curve"/>
      <point x="382.333" y="55"/>
      <point x="362.5" y="42"/>
      <point x="339.5" y="30" type="curve" smooth="yes"/>
      <point x="316.5" y="18"/>
      <point x="293.5" y="8.33333"/>
      <point x="270.5" y="1" type="curve" smooth="yes"/>
      <point x="247.5" y="-6.33333"/>
      <point x="226.667" y="-10"/>
    </contour>
    <contour>
      <point x="555" y="54" type="curve" smooth="yes"/>
      <point x="587" y="54"/>
      <point x="613.833" y="62.6667"/>
      <point x="635.5" y="80" type="curve" smooth="yes"/>
      <point x="657.167" y="97.3333"/>
      <point x="673.5" y="119.667"/>
      <point x="684.5" y="147" type="curve" smooth="yes"/>
      <point x="695.5" y="174.333"/>
      <point x="701" y="203.333"/>
      <point x="701" y="234" type="curve" smooth="yes"/>
      <point x="701" y="280.667"/>
      <point x="690.667" y="319.333"/>
      <point x="670" y="350" type="curve" smooth="yes"/>
      <point x="649.333" y="380.667"/>
      <point x="619.667" y="396"/>
      <point x="581" y="396" type="curve" smooth="yes"/>
      <point x="555.667" y="396"/>
      <point x="532" y="389.333"/>
      <point x="510" y="376" type="curve" smooth="yes"/>
      <point x="488" y="362.667"/>
      <point x="470.5" y="344"/>
      <point x="457.5" y="320" type="curve" smooth="yes"/>
      <point x="444.5" y="296"/>
      <point x="438" y="267.333"/>
      <point x="438" y="234" type="curve" smooth="yes"/>
      <point x="438" y="203.333"/>
      <point x="442.167" y="174.167"/>
      <point x="450.5" y="146.5" type="curve" smooth="yes"/>
      <point x="458.833" y="118.833"/>
      <point x="471.667" y="96.5"/>
      <point x="489" y="79.5" type="curve" smooth="yes"/>
      <point x="506.333" y="62.5"/>
      <point x="528.333" y="54"/>
    </contour>
  </outline>
</glyph>
<glyph name="uni195B" format="2">
  <advance width="509"/>
  <unicode hex="195B"/>
  <anchor x="19" y="0" name="U"/>
  <outline>
    <contour>
      <point x="201" y="-10" type="curve" smooth="yes"/>
      <point x="157.667" y="-10"/>
      <point x="125.5" y="-0.166667"/>
      <point x="104.5" y="19.5" type="curve" smooth="yes"/>
      <point x="83.5" y="39.1667"/>
      <point x="69.8333" y="68.5"/>
      <point x="63.5" y="107.5" type="curve" smooth="yes"/>
      <point x="57.1667" y="146.5"/>
      <point x="54" y="195"/>
      <point x="54" y="253" type="curve" smooth="yes"/>
      <point x="54" y="325" type="line" smooth="yes"/>
      <point x="54" y="364.333"/>
      <point x="53.1667" y="398.667"/>
      <point x="51.5" y="428" type="curve" smooth="yes"/>
      <point x="49.8333" y="457.333"/>
      <point x="47.3333" y="481.333"/>
      <point x="44" y="500" type="curve"/>
      <point x="120" y="520" type="line"/>
      <point x="126.667" y="495.333"/>
      <point x="131.333" y="468.167"/>
      <point x="134" y="438.5" type="curve" smooth="yes"/>
      <point x="136.667" y="408.833"/>
      <point x="138.333" y="381"/>
      <point x="139" y="355" type="curve"/>
      <point x="179" y="359.667"/>
      <point x="218.833" y="364.833"/>
      <point x="258.5" y="370.5" type="curve" smooth="yes"/>
      <point x="298.167" y="376.167"/>
      <point x="338.333" y="383.333"/>
      <point x="379" y="392" type="curve"/>
      <point x="378.333" y="446.667"/>
      <point x="375.333" y="494.667"/>
      <point x="370" y="536" type="curve"/>
      <point x="450" y="546" type="line"/>
      <point x="454" y="527.333"/>
      <point x="457.5" y="496.167"/>
      <point x="460.5" y="452.5" type="curve" smooth="yes"/>
      <point x="463.5" y="408.833"/>
      <point x="465" y="359.333"/>
      <point x="465" y="304" type="curve" smooth="yes"/>
      <point x="465" y="278.667"/>
      <point x="464.5" y="247.833"/>
      <point x="463.5" y="211.5" type="curve" smooth="yes"/>
      <point x="462.5" y="175.167"/>
      <point x="461.333" y="139"/>
      <point x="460" y="103" type="curve" smooth="yes"/>
      <point x="458.667" y="67"/>
      <point x="457" y="36"/>
      <point x="455" y="10" type="curve"/>
      <point x="370" y="-10" type="line"/>
      <point x="371.333" y="0.666667"/>
      <point x="372.167" y="11.1667"/>
      <point x="372.5" y="21.5" type="curve" smooth="yes"/>
      <point x="372.833" y="31.8333"/>
      <point x="373.333" y="42.3333"/>
      <point x="374" y="53" type="curve"/>
      <point x="348" y="35.6667"/>
      <point x="318.667" y="20.8333"/>
      <point x="286" y="8.5" type="curve" smooth="yes"/>
      <point x="253.333" y="-3.83333"/>
      <point x="225" y="-10"/>
    </contour>
    <contour>
      <point x="224" y="54" type="curve" smooth="yes"/>
      <point x="254" y="54"/>
      <point x="282.167" y="60.1667"/>
      <point x="308.5" y="72.5" type="curve" smooth="yes"/>
      <point x="334.833" y="84.8333"/>
      <point x="357.333" y="99"/>
      <point x="376" y="115" type="curve"/>
      <point x="377.333" y="149"/>
      <point x="378.167" y="181.667"/>
      <point x="378.5" y="213" type="curve" smooth="yes"/>
      <point x="378.833" y="244.333"/>
      <point x="379" y="271.667"/>
      <point x="379" y="295" type="curve" smooth="yes"/>
      <point x="379" y="340" type="line"/>
      <point x="357.667" y="334"/>
      <point x="332.833" y="327.833"/>
      <point x="304.5" y="321.5" type="curve" smooth="yes"/>
      <point x="276.167" y="315.167"/>
      <point x="247.667" y="309.167"/>
      <point x="219" y="303.5" type="curve" smooth="yes"/>
      <point x="190.333" y="297.833"/>
      <point x="164" y="292.667"/>
      <point x="140" y="288" type="curve"/>
      <point x="140" y="260" type="line" smooth="yes"/>
      <point x="140" y="208"/>
      <point x="141.667" y="167"/>
      <point x="145" y="137" type="curve" smooth="yes"/>
      <point x="148.333" y="107"/>
      <point x="156" y="85.6667"/>
      <point x="168" y="73" type="curve" smooth="yes"/>
      <point x="180" y="60.3333"/>
      <point x="198.667" y="54"/>
    </contour>
  </outline>
</glyph>
<glyph name="uni195C" format="2">
  <advance width="831"/>
  <unicode hex="195C"/>
  <anchor x="170" y="0" name="U"/>
  <outline>
    <contour>
      <point x="561" y="-181" type="curve" smooth="yes"/>
      <point x="536.333" y="-181"/>
      <point x="511.667" y="-178.167"/>
      <point x="487" y="-172.5" type="curve" smooth="yes"/>
      <point x="462.333" y="-166.833"/>
      <point x="442" y="-160.667"/>
      <point x="426" y="-154" type="curve"/>
      <point x="426" y="-99" type="line"/>
      <point x="443.333" y="-106.333"/>
      <point x="463.833" y="-112.5"/>
      <point x="487.5" y="-117.5" type="curve" smooth="yes"/>
      <point x="511.167" y="-122.5"/>
      <point x="533" y="-125"/>
      <point x="553" y="-125" type="curve" smooth="yes"/>
      <point x="594.333" y="-125"/>
      <point x="627.833" y="-111"/>
      <point x="653.5" y="-83" type="curve" smooth="yes"/>
      <point x="679.167" y="-55"/>
      <point x="695" y="-5.66667"/>
      <point x="701" y="65" type="curve"/>
      <point x="651.667" y="15"/>
      <point x="598.667" y="-10"/>
      <point x="542" y="-10" type="curve" smooth="yes"/>
      <point x="508.667" y="-10"/>
      <point x="480.167" y="-2.83333"/>
      <point x="456.5" y="11.5" type="curve" smooth="yes"/>
      <point x="432.833" y="25.8333"/>
      <point x="413.333" y="44.6667"/>
      <point x="398" y="68" type="curve"/>
      <point x="381.333" y="54"/>
      <point x="361.5" y="41.1667"/>
      <point x="338.5" y="29.5" type="curve" smooth="yes"/>
      <point x="315.5" y="17.8333"/>
      <point x="292.5" y="8.33333"/>
      <point x="269.5" y="1" type="curve" smooth="yes"/>
      <point x="246.5" y="-6.33333"/>
      <point x="226" y="-10"/>
      <point x="208" y="-10" type="curve" smooth="yes"/>
      <point x="164.667" y="-10"/>
      <point x="132.167" y="-0.166667"/>
      <point x="110.5" y="19.5" type="curve" smooth="yes"/>
      <point x="88.8333" y="39.1667"/>
      <point x="74.3333" y="68.5"/>
      <point x="67" y="107.5" type="curve" smooth="yes"/>
      <point x="59.6667" y="146.5"/>
      <point x="56" y="195"/>
      <point x="56" y="253" type="curve" smooth="yes"/>
      <point x="56" y="276" type="line" smooth="yes"/>
      <point x="56" y="306.667"/>
      <point x="55.5" y="337.167"/>
      <point x="54.5" y="367.5" type="curve" smooth="yes"/>
      <point x="53.5" y="397.833"/>
      <point x="52.1667" y="425.833"/>
      <point x="50.5" y="451.5" type="curve" smooth="yes"/>
      <point x="48.8333" y="477.167"/>
      <point x="46.6667" y="497.667"/>
      <point x="44" y="513" type="curve"/>
      <point x="126" y="533" type="line"/>
      <point x="131.333" y="505"/>
      <point x="135.333" y="468.5"/>
      <point x="138" y="423.5" type="curve" smooth="yes"/>
      <point x="140.667" y="378.5"/>
      <point x="142" y="330.333"/>
      <point x="142" y="279" type="curve" smooth="yes"/>
      <point x="142" y="260" type="line" smooth="yes"/>
      <point x="142" y="208"/>
      <point x="144.167" y="167"/>
      <point x="148.5" y="137" type="curve" smooth="yes"/>
      <point x="152.833" y="107"/>
      <point x="161.333" y="85.6667"/>
      <point x="174" y="73" type="curve" smooth="yes"/>
      <point x="186.667" y="60.3333"/>
      <point x="205.667" y="54"/>
      <point x="231" y="54" type="curve" smooth="yes"/>
      <point x="260.333" y="54"/>
      <point x="287.333" y="59.6667"/>
      <point x="312" y="71" type="curve" smooth="yes"/>
      <point x="336.667" y="82.3333"/>
      <point x="358.333" y="95.6667"/>
      <point x="377" y="111" type="curve"/>
      <point x="368.333" y="133.667"/>
      <point x="362" y="158"/>
      <point x="358" y="184" type="curve" smooth="yes"/>
      <point x="354" y="210"/>
      <point x="352" y="236.333"/>
      <point x="352" y="263" type="curve" smooth="yes"/>
      <point x="352" y="296" type="line" smooth="yes"/>
      <point x="352" y="306.667"/>
      <point x="352.667" y="321.833"/>
      <point x="354" y="341.5" type="curve" smooth="yes"/>
      <point x="355.333" y="361.167"/>
      <point x="358" y="382.667"/>
      <point x="362" y="406" type="curve" smooth="yes"/>
      <point x="366" y="429.333"/>
      <point x="372.5" y="451.667"/>
      <point x="381.5" y="473" type="curve" smooth="yes"/>
      <point x="390.5" y="494.333"/>
      <point x="402.833" y="511.833"/>
      <point x="418.5" y="525.5" type="curve" smooth="yes"/>
      <point x="434.167" y="539.167"/>
      <point x="453.667" y="546"/>
      <point x="477" y="546" type="curve" smooth="yes"/>
      <point x="484.333" y="546"/>
      <point x="493.5" y="544.333"/>
      <point x="504.5" y="541" type="curve" smooth="yes"/>
      <point x="515.5" y="537.667"/>
      <point x="528.333" y="531.667"/>
      <point x="543" y="523" type="curve"/>
      <point x="526" y="490" type="line"/>
      <point x="521.333" y="492"/>
      <point x="515.833" y="494.167"/>
      <point x="509.5" y="496.5" type="curve" smooth="yes"/>
      <point x="503.167" y="498.833"/>
      <point x="495.333" y="500"/>
      <point x="486" y="500" type="curve" smooth="yes"/>
      <point x="463.333" y="500"/>
      <point x="448.667" y="487.667"/>
      <point x="442" y="463" type="curve" smooth="yes"/>
      <point x="435.333" y="438.333"/>
      <point x="432" y="401.333"/>
      <point x="432" y="352" type="curve"/>
      <point x="447.333" y="380"/>
      <point x="468.333" y="403.167"/>
      <point x="495" y="421.5" type="curve" smooth="yes"/>
      <point x="521.667" y="439.833"/>
      <point x="550.333" y="449"/>
      <point x="581" y="449" type="curve" smooth="yes"/>
      <point x="622.333" y="449"/>
      <point x="656.333" y="440.667"/>
      <point x="683" y="424" type="curve" smooth="yes"/>
      <point x="709.667" y="407.333"/>
      <point x="730.667" y="386"/>
      <point x="746" y="360" type="curve" smooth="yes"/>
      <point x="761.333" y="334"/>
      <point x="772" y="306.667"/>
      <point x="778" y="278" type="curve" smooth="yes"/>
      <point x="784" y="249.333"/>
      <point x="787" y="223"/>
      <point x="787" y="199" type="curve" smooth="yes"/>
      <point x="787" y="185"/>
      <point x="786.333" y="166"/>
      <point x="785" y="142" type="curve" smooth="yes"/>
      <point x="783.667" y="118"/>
      <point x="780.833" y="91.6667"/>
      <point x="776.5" y="63" type="curve" smooth="yes"/>
      <point x="772.167" y="34.3333"/>
      <point x="765.167" y="5.66667"/>
      <point x="755.5" y="-23" type="curve" smooth="yes"/>
      <point x="745.833" y="-51.6667"/>
      <point x="732.833" y="-77.8333"/>
      <point x="716.5" y="-101.5" type="curve" smooth="yes"/>
      <point x="700.167" y="-125.167"/>
      <point x="679.333" y="-144.333"/>
      <point x="654" y="-159" type="curve" smooth="yes"/>
      <point x="628.667" y="-173.667"/>
      <point x="597.667" y="-181"/>
    </contour>
    <contour>
      <point x="555" y="54" type="curve" smooth="yes"/>
      <point x="587" y="54"/>
      <point x="613.833" y="62.6667"/>
      <point x="635.5" y="80" type="curve" smooth="yes"/>
      <point x="657.167" y="97.3333"/>
      <point x="673.5" y="119.667"/>
      <point x="684.5" y="147" type="curve" smooth="yes"/>
      <point x="695.5" y="174.333"/>
      <point x="701" y="203.333"/>
      <point x="701" y="234" type="curve" smooth="yes"/>
      <point x="701" y="280.667"/>
      <point x="690.667" y="319.333"/>
      <point x="670" y="350" type="curve" smooth="yes"/>
      <point x="649.333" y="380.667"/>
      <point x="619.667" y="396"/>
      <point x="581" y="396" type="curve" smooth="yes"/>
      <point x="555.667" y="396"/>
      <point x="532" y="389.333"/>
      <point x="510" y="376" type="curve" smooth="yes"/>
      <point x="488" y="362.667"/>
      <point x="470.5" y="344"/>
      <point x="457.5" y="320" type="curve" smooth="yes"/>
      <point x="444.5" y="296"/>
      <point x="438" y="267.333"/>
      <point x="438" y="234" type="curve" smooth="yes"/>
      <point x="438" y="203.333"/>
      <point x="442.167" y="174.167"/>
      <point x="450.5" y="146.5" type="curve" smooth="yes"/>
      <point x="458.833" y="118.833"/>
      <point x="471.667" y="96.5"/>
      <point x="489" y="79.5" type="curve" smooth="yes"/>
      <point x="506.333" y="62.5"/>
      <point x="528.333" y="54"/>
    </contour>
  </outline>
</glyph>
<glyph name="uni195D" format="2">
  <advance width="577"/>
  <unicode hex="195D"/>
  <anchor x="56" y="0" name="U"/>
  <outline>
    <contour>
      <point x="256" y="-10" type="curve" smooth="yes"/>
      <point x="185.333" y="-10"/>
      <point x="134.5" y="14.3333"/>
      <point x="103.5" y="63" type="curve" smooth="yes"/>
      <point x="72.5" y="111.667"/>
      <point x="57" y="180.333"/>
      <point x="57" y="269" type="curve" smooth="yes"/>
      <point x="57" y="365" type="line" smooth="yes"/>
      <point x="57" y="384.333"/>
      <point x="55.8333" y="407"/>
      <point x="53.5" y="433" type="curve" smooth="yes"/>
      <point x="51.1667" y="459"/>
      <point x="48" y="483.333"/>
      <point x="44" y="506" type="curve"/>
      <point x="127" y="542" type="line"/>
      <point x="131" y="526.667"/>
      <point x="134.167" y="511"/>
      <point x="136.5" y="495" type="curve" smooth="yes"/>
      <point x="138.833" y="479"/>
      <point x="140.333" y="464"/>
      <point x="141" y="450" type="curve"/>
      <point x="166.333" y="477.333"/>
      <point x="194.167" y="500.167"/>
      <point x="224.5" y="518.5" type="curve" smooth="yes"/>
      <point x="254.833" y="536.833"/>
      <point x="284.667" y="546"/>
      <point x="314" y="546" type="curve" smooth="yes"/>
      <point x="386.667" y="546"/>
      <point x="441.333" y="523"/>
      <point x="478" y="477" type="curve" smooth="yes"/>
      <point x="514.667" y="431"/>
      <point x="533" y="368"/>
      <point x="533" y="288" type="curve" smooth="yes"/>
      <point x="533" y="242.667"/>
      <point x="532.5" y="197"/>
      <point x="531.5" y="151" type="curve" smooth="yes"/>
      <point x="530.5" y="105"/>
      <point x="529.333" y="58"/>
      <point x="528" y="10" type="curve"/>
      <point x="443" y="-10" type="line"/>
      <point x="444.333" y="6"/>
      <point x="445.167" y="22.1667"/>
      <point x="445.5" y="38.5" type="curve" smooth="yes"/>
      <point x="445.833" y="54.8333"/>
      <point x="446.333" y="71.3333"/>
      <point x="447" y="88" type="curve"/>
      <point x="416.333" y="56.6667"/>
      <point x="382.833" y="32.5"/>
      <point x="346.5" y="15.5" type="curve" smooth="yes"/>
      <point x="310.167" y="-1.5"/>
      <point x="280" y="-10"/>
    </contour>
    <contour>
      <point x="277" y="54" type="curve" smooth="yes"/>
      <point x="318.333" y="54"/>
      <point x="351.5" y="63.6667"/>
      <point x="376.5" y="83" type="curve" smooth="yes"/>
      <point x="401.5" y="102.333"/>
      <point x="419.5" y="128.667"/>
      <point x="430.5" y="162" type="curve" smooth="yes"/>
      <point x="441.5" y="195.333"/>
      <point x="447" y="233"/>
      <point x="447" y="275" type="curve" smooth="yes"/>
      <point x="447" y="338.333"/>
      <point x="436.333" y="388.667"/>
      <point x="415" y="426" type="curve" smooth="yes"/>
      <point x="393.667" y="463.333"/>
      <point x="355.333" y="482"/>
      <point x="300" y="482" type="curve" smooth="yes"/>
      <point x="247.333" y="482"/>
      <point x="208" y="462.333"/>
      <point x="182" y="423" type="curve" smooth="yes"/>
      <point x="156" y="383.667"/>
      <point x="143" y="332.333"/>
      <point x="143" y="269" type="curve" smooth="yes"/>
      <point x="143" y="205.667"/>
      <point x="153.667" y="154"/>
      <point x="175" y="114" type="curve" smooth="yes"/>
      <point x="196.333" y="74"/>
      <point x="230.333" y="54"/>
    </contour>
  </outline>
</glyph>
<glyph name="uni195E" format="2">
  <advance width="849"/>
  <unicode hex="195E"/>
  <anchor x="175" y="0" name="U"/>
  <outline>
    <contour>
      <point x="258" y="-181" type="curve" smooth="yes"/>
      <point x="249.333" y="-181"/>
      <point x="237.167" y="-179.667"/>
      <point x="221.5" y="-177" type="curve" smooth="yes"/>
      <point x="205.833" y="-174.333"/>
      <point x="189.667" y="-170.833"/>
      <point x="173" y="-166.5" type="curve" smooth="yes"/>
      <point x="156.333" y="-162.167"/>
      <point x="142.667" y="-157"/>
      <point x="132" y="-151" type="curve"/>
      <point x="132" y="-99" type="line"/>
      <point x="140.667" y="-102.333"/>
      <point x="152.333" y="-106.167"/>
      <point x="167" y="-110.5" type="curve" smooth="yes"/>
      <point x="181.667" y="-114.833"/>
      <point x="196.667" y="-118.333"/>
      <point x="212" y="-121" type="curve" smooth="yes"/>
      <point x="227.333" y="-123.667"/>
      <point x="240" y="-125"/>
      <point x="250" y="-125" type="curve" smooth="yes"/>
      <point x="274" y="-125"/>
      <point x="295.5" y="-122.167"/>
      <point x="314.5" y="-116.5" type="curve" smooth="yes"/>
      <point x="333.5" y="-110.833"/>
      <point x="350.167" y="-99.8333"/>
      <point x="364.5" y="-83.5" type="curve" smooth="yes"/>
      <point x="378.833" y="-67.1667"/>
      <point x="390.333" y="-43"/>
      <point x="399" y="-11" type="curve" smooth="yes"/>
      <point x="407.667" y="21"/>
      <point x="413.333" y="63"/>
      <point x="416" y="115" type="curve"/>
      <point x="400" y="96.3333"/>
      <point x="381.833" y="80.5"/>
      <point x="361.5" y="67.5" type="curve" smooth="yes"/>
      <point x="341.167" y="54.5"/>
      <point x="321.333" y="44.8333"/>
      <point x="302" y="38.5" type="curve" smooth="yes"/>
      <point x="282.667" y="32.1667"/>
      <point x="266" y="29"/>
      <point x="252" y="29" type="curve" smooth="yes"/>
      <point x="216.667" y="29"/>
      <point x="186.5" y="37.3333"/>
      <point x="161.5" y="54" type="curve" smooth="yes"/>
      <point x="136.5" y="70.6667"/>
      <point x="116.333" y="91.8333"/>
      <point x="101" y="117.5" type="curve" smooth="yes"/>
      <point x="85.6667" y="143.167"/>
      <point x="74.5" y="170.667"/>
      <point x="67.5" y="200" type="curve" smooth="yes"/>
      <point x="60.5" y="229.333"/>
      <point x="57" y="256.333"/>
      <point x="57" y="281" type="curve" smooth="yes"/>
      <point x="57" y="365" type="line" smooth="yes"/>
      <point x="57" y="384.333"/>
      <point x="55.8333" y="407"/>
      <point x="53.5" y="433" type="curve" smooth="yes"/>
      <point x="51.1667" y="459"/>
      <point x="48" y="483.333"/>
      <point x="44" y="506" type="curve"/>
      <point x="127" y="542" type="line"/>
      <point x="130.333" y="527.333"/>
      <point x="133.167" y="511"/>
      <point x="135.5" y="493" type="curve" smooth="yes"/>
      <point x="137.833" y="475"/>
      <point x="139.333" y="459.333"/>
      <point x="140" y="446" type="curve"/>
      <point x="150" y="462.667"/>
      <point x="163" y="478.667"/>
      <point x="179" y="494" type="curve" smooth="yes"/>
      <point x="195" y="509.333"/>
      <point x="213.333" y="521.833"/>
      <point x="234" y="531.5" type="curve" smooth="yes"/>
      <point x="254.667" y="541.167"/>
      <point x="276.667" y="546"/>
      <point x="300" y="546" type="curve" smooth="yes"/>
      <point x="339.333" y="546"/>
      <point x="372.167" y="536.5"/>
      <point x="398.5" y="517.5" type="curve" smooth="yes"/>
      <point x="424.833" y="498.5"/>
      <point x="445.333" y="474.667"/>
      <point x="460" y="446" type="curve"/>
      <point x="477.333" y="466.667"/>
      <point x="497.5" y="484.333"/>
      <point x="520.5" y="499" type="curve" smooth="yes"/>
      <point x="543.5" y="513.667"/>
      <point x="567" y="525.167"/>
      <point x="591" y="533.5" type="curve" smooth="yes"/>
      <point x="615" y="541.833"/>
      <point x="637" y="546"/>
      <point x="657" y="546" type="curve" smooth="yes"/>
      <point x="700.333" y="546"/>
      <point x="732.5" y="536"/>
      <point x="753.5" y="516" type="curve" smooth="yes"/>
      <point x="774.5" y="496"/>
      <point x="788.333" y="467.333"/>
      <point x="795" y="430" type="curve" smooth="yes"/>
      <point x="801.667" y="392.667"/>
      <point x="805" y="348"/>
      <point x="805" y="296" type="curve" smooth="yes"/>
      <point x="805" y="274.667"/>
      <point x="804.333" y="250.167"/>
      <point x="803" y="222.5" type="curve" smooth="yes"/>
      <point x="801.667" y="194.833"/>
      <point x="799.833" y="167.167"/>
      <point x="797.5" y="139.5" type="curve" smooth="yes"/>
      <point x="795.167" y="111.833"/>
      <point x="792.667" y="86.5"/>
      <point x="790" y="63.5" type="curve" smooth="yes"/>
      <point x="787.333" y="40.5"/>
      <point x="784.667" y="22.6667"/>
      <point x="782" y="10" type="curve"/>
      <point x="694" y="-10" type="line"/>
      <point x="699.333" y="27.3333"/>
      <point x="703.833" y="65.6667"/>
      <point x="707.5" y="105" type="curve" smooth="yes"/>
      <point x="711.167" y="144.333"/>
      <point x="714" y="181.333"/>
      <point x="716" y="216" type="curve" smooth="yes"/>
      <point x="718" y="250.667"/>
      <point x="719" y="279.333"/>
      <point x="719" y="302" type="curve" smooth="yes"/>
      <point x="719" y="344.667"/>
      <point x="717.167" y="379.167"/>
      <point x="713.5" y="405.5" type="curve" smooth="yes"/>
      <point x="709.833" y="431.833"/>
      <point x="701.833" y="451.167"/>
      <point x="689.5" y="463.5" type="curve" smooth="yes"/>
      <point x="677.167" y="475.833"/>
      <point x="658.333" y="482"/>
      <point x="633" y="482" type="curve" smooth="yes"/>
      <point x="598.333" y="482"/>
      <point x="568.167" y="474.167"/>
      <point x="542.5" y="458.5" type="curve" smooth="yes"/>
      <point x="516.833" y="442.833"/>
      <point x="495.667" y="423.333"/>
      <point x="479" y="400" type="curve"/>
      <point x="486.333" y="378.667"/>
      <point x="491.5" y="356.667"/>
      <point x="494.5" y="334" type="curve" smooth="yes"/>
      <point x="497.5" y="311.333"/>
      <point x="499" y="289.333"/>
      <point x="499" y="268" type="curve" smooth="yes"/>
      <point x="499" y="207" type="line" smooth="yes"/>
      <point x="499" y="82.3333"/>
      <point x="479.167" y="-13.5"/>
      <point x="439.5" y="-80.5" type="curve" smooth="yes"/>
      <point x="399.833" y="-147.5"/>
      <point x="339.333" y="-181"/>
    </contour>
    <contour>
      <point x="260" y="93" type="curve" smooth="yes"/>
      <point x="290.667" y="93"/>
      <point x="316" y="99.5"/>
      <point x="336" y="112.5" type="curve" smooth="yes"/>
      <point x="356" y="125.5"/>
      <point x="371.5" y="143"/>
      <point x="382.5" y="165" type="curve" smooth="yes"/>
      <point x="393.5" y="187"/>
      <point x="401.333" y="211.833"/>
      <point x="406" y="239.5" type="curve" smooth="yes"/>
      <point x="410.667" y="267.167"/>
      <point x="413" y="295.667"/>
      <point x="413" y="325" type="curve" smooth="yes"/>
      <point x="413" y="371.667"/>
      <point x="402.333" y="410.333"/>
      <point x="381" y="441" type="curve" smooth="yes"/>
      <point x="359.667" y="471.667"/>
      <point x="328" y="487"/>
      <point x="286" y="487" type="curve" smooth="yes"/>
      <point x="257.333" y="487"/>
      <point x="232.167" y="477.5"/>
      <point x="210.5" y="458.5" type="curve" smooth="yes"/>
      <point x="188.833" y="439.5"/>
      <point x="172.167" y="413.667"/>
      <point x="160.5" y="381" type="curve" smooth="yes"/>
      <point x="148.833" y="348.333"/>
      <point x="143" y="310.667"/>
      <point x="143" y="268" type="curve" smooth="yes"/>
      <point x="143" y="242"/>
      <point x="146.167" y="215.5"/>
      <point x="152.5" y="188.5" type="curve" smooth="yes"/>
      <point x="158.833" y="161.5"/>
      <point x="170.5" y="138.833"/>
      <point x="187.5" y="120.5" type="curve" smooth="yes"/>
      <point x="204.5" y="102.167"/>
      <point x="228.667" y="93"/>
    </contour>
  </outline>
</glyph>
<glyph name="uni1962" format="2">
  <advance width="536"/>
  <unicode hex="1962"/>
  <anchor x="43" y="0" name="U"/>
  <outline>
    <contour>
      <point x="58" y="-10" type="line"/>
      <point x="60.6667" y="34.6667"/>
      <point x="62.3333" y="79.8333"/>
      <point x="63" y="125.5" type="curve" smooth="yes"/>
      <point x="63.6667" y="171.167"/>
      <point x="64" y="221.333"/>
      <point x="64" y="276" type="curve" smooth="yes"/>
      <point x="64" y="310"/>
      <point x="63.3333" y="344"/>
      <point x="62" y="378" type="curve" smooth="yes"/>
      <point x="60.6667" y="412"/>
      <point x="58.8333" y="442.333"/>
      <point x="56.5" y="469" type="curve" smooth="yes"/>
      <point x="54.1667" y="495.667"/>
      <point x="51.6667" y="515.333"/>
      <point x="49" y="528" type="curve"/>
      <point x="131" y="546" type="line"/>
      <point x="137.667" y="519.333"/>
      <point x="142.5" y="482"/>
      <point x="145.5" y="434" type="curve" smooth="yes"/>
      <point x="148.5" y="386"/>
      <point x="150" y="334.333"/>
      <point x="150" y="279" type="curve" smooth="yes"/>
      <point x="150" y="257"/>
      <point x="149.833" y="232"/>
      <point x="149.5" y="204" type="curve" smooth="yes"/>
      <point x="149.167" y="176"/>
      <point x="148.333" y="148"/>
      <point x="147" y="120" type="curve"/>
      <point x="157" y="140.667"/>
      <point x="169.333" y="165.167"/>
      <point x="184" y="193.5" type="curve" smooth="yes"/>
      <point x="198.667" y="221.833"/>
      <point x="214.833" y="252"/>
      <point x="232.5" y="284" type="curve" smooth="yes"/>
      <point x="250.167" y="316"/>
      <point x="268.5" y="347.5"/>
      <point x="287.5" y="378.5" type="curve" smooth="yes"/>
      <point x="306.5" y="409.5"/>
      <point x="325.167" y="437.667"/>
      <point x="343.5" y="463" type="curve" smooth="yes"/>
      <point x="361.833" y="488.333"/>
      <point x="378.833" y="508.5"/>
      <point x="394.5" y="523.5" type="curve" smooth="yes"/>
      <point x="410.167" y="538.5"/>
      <point x="423.667" y="546"/>
      <point x="435" y="546" type="curve" smooth="yes"/>
      <point x="447.667" y="546"/>
      <point x="457" y="543.833"/>
      <point x="463" y="539.5" type="curve" smooth="yes"/>
      <point x="469" y="535.167"/>
      <point x="474.333" y="523.333"/>
      <point x="479" y="504" type="curve" smooth="yes"/>
      <point x="485" y="478"/>
      <point x="488.667" y="446.333"/>
      <point x="490" y="409" type="curve" smooth="yes"/>
      <point x="491.333" y="371.667"/>
      <point x="492" y="328.333"/>
      <point x="492" y="279" type="curve" smooth="yes"/>
      <point x="492" y="253.667"/>
      <point x="491.667" y="223.833"/>
      <point x="491" y="189.5" type="curve" smooth="yes"/>
      <point x="490.333" y="155.167"/>
      <point x="489.5" y="121.833"/>
      <point x="488.5" y="89.5" type="curve" smooth="yes"/>
      <point x="487.5" y="57.1667"/>
      <point x="486" y="30.6667"/>
      <point x="484" y="10" type="curve"/>
      <point x="399" y="-10" type="line"/>
      <point x="401.667" y="34.6667"/>
      <point x="403.5" y="79.8333"/>
      <point x="404.5" y="125.5" type="curve" smooth="yes"/>
      <point x="405.5" y="171.167"/>
      <point x="406" y="221.333"/>
      <point x="406" y="276" type="curve" smooth="yes"/>
      <point x="406" y="312.667"/>
      <point x="405.333" y="345.667"/>
      <point x="404" y="375" type="curve" smooth="yes"/>
      <point x="402.667" y="404.333"/>
      <point x="401" y="429.333"/>
      <point x="399" y="450" type="curve"/>
      <point x="383" y="433.333"/>
      <point x="364.667" y="409.5"/>
      <point x="344" y="378.5" type="curve" smooth="yes"/>
      <point x="323.333" y="347.5"/>
      <point x="302.333" y="313.5"/>
      <point x="281" y="276.5" type="curve" smooth="yes"/>
      <point x="259.667" y="239.5"/>
      <point x="239.333" y="202.833"/>
      <point x="220" y="166.5" type="curve" smooth="yes"/>
      <point x="200.667" y="130.167"/>
      <point x="184.167" y="98"/>
      <point x="170.5" y="70" type="curve" smooth="yes"/>
      <point x="156.833" y="42"/>
      <point x="147.333" y="21.6667"/>
      <point x="142" y="9" type="curve"/>
    </contour>
  </outline>
</glyph>
<glyph name="uni1965" format="2">
  <advance width="514"/>
  <unicode hex="1965"/>
  <anchor x="390" y="0" name="U"/>
  <outline>
    <contour>
      <point x="63" y="-10" type="line"/>
      <point x="61.6667" y="7.33333"/>
      <point x="60.1667" y="30.6667"/>
      <point x="58.5" y="60" type="curve" smooth="yes"/>
      <point x="56.8333" y="89.3333"/>
      <point x="55.3333" y="121.333"/>
      <point x="54" y="156" type="curve" smooth="yes"/>
      <point x="52.6667" y="190.667"/>
      <point x="51.5" y="225"/>
      <point x="50.5" y="259" type="curve" smooth="yes"/>
      <point x="49.5" y="293"/>
      <point x="49" y="323.667"/>
      <point x="49" y="351" type="curve" smooth="yes"/>
      <point x="49" y="536" type="line" smooth="yes"/>
      <point x="49" y="567.333"/>
      <point x="51" y="600.167"/>
      <point x="55" y="634.5" type="curve" smooth="yes"/>
      <point x="59" y="668.833"/>
      <point x="65.5" y="702.167"/>
      <point x="74.5" y="734.5" type="curve" smooth="yes"/>
      <point x="83.5" y="766.833"/>
      <point x="95.8333" y="796.167"/>
      <point x="111.5" y="822.5" type="curve" smooth="yes"/>
      <point x="127.167" y="848.833"/>
      <point x="146.667" y="869.667"/>
      <point x="170" y="885" type="curve" smooth="yes"/>
      <point x="193.333" y="900.333"/>
      <point x="221" y="908"/>
      <point x="253" y="908" type="curve" smooth="yes"/>
      <point x="324.333" y="908"/>
      <point x="377.5" y="872.167"/>
      <point x="412.5" y="800.5" type="curve" smooth="yes"/>
      <point x="447.5" y="728.833"/>
      <point x="465" y="615"/>
      <point x="465" y="459" type="curve" smooth="yes"/>
      <point x="465" y="378.333"/>
      <point x="464.167" y="311"/>
      <point x="462.5" y="257" type="curve" smooth="yes"/>
      <point x="460.833" y="203"/>
      <point x="460" y="164.667"/>
      <point x="460" y="142" type="curve"/>
      <point x="375" y="122" type="line"/>
      <point x="376.333" y="145.333"/>
      <point x="377.667" y="184.5"/>
      <point x="379" y="239.5" type="curve" smooth="yes"/>
      <point x="380.333" y="294.5"/>
      <point x="381" y="365.333"/>
      <point x="381" y="452" type="curve" smooth="yes"/>
      <point x="381" y="551.333"/>
      <point x="375.833" y="629.5"/>
      <point x="365.5" y="686.5" type="curve" smooth="yes"/>
      <point x="355.167" y="743.5"/>
      <point x="340.5" y="784.167"/>
      <point x="321.5" y="808.5" type="curve" smooth="yes"/>
      <point x="302.5" y="832.833"/>
      <point x="279.667" y="845"/>
      <point x="253" y="845" type="curve" smooth="yes"/>
      <point x="230.333" y="845"/>
      <point x="211.333" y="836.833"/>
      <point x="196" y="820.5" type="curve" smooth="yes"/>
      <point x="180.667" y="804.167"/>
      <point x="168.5" y="781.833"/>
      <point x="159.5" y="753.5" type="curve" smooth="yes"/>
      <point x="150.5" y="725.167"/>
      <point x="144.167" y="693.167"/>
      <point x="140.5" y="657.5" type="curve" smooth="yes"/>
      <point x="136.833" y="621.833"/>
      <point x="135" y="584.667"/>
      <point x="135" y="546" type="curve" smooth="yes"/>
      <point x="135" y="350" type="line" smooth="yes"/>
      <point x="135" y="279.333"/>
      <point x="136.667" y="213.833"/>
      <point x="140" y="153.5" type="curve" smooth="yes"/>
      <point x="143.333" y="93.1667"/>
      <point x="146.333" y="45.3333"/>
      <point x="149" y="10" type="curve"/>
    </contour>
  </outline>
</glyph>
<glyph name="uni1968" format="2">
  <advance width="247"/>
  <unicode hex="1968"/>
  <anchor x="-123" y="0" name="U"/>
  <outline>
    <contour>
      <point x="246" y="-239" type="curve" smooth="yes"/>
      <point x="178" y="-239"/>
      <point x="130.667" y="-219.833"/>
      <point x="104" y="-181.5" type="curve" smooth="yes"/>
      <point x="77.3333" y="-143.167"/>
      <point x="64" y="-81"/>
      <point x="64" y="5" type="curve" smooth="yes"/>
      <point x="64" y="300" type="line" smooth="yes"/>
      <point x="64" y="353.333"/>
      <point x="62.5" y="401"/>
      <point x="59.5" y="443" type="curve" smooth="yes"/>
      <point x="56.5" y="485"/>
      <point x="51.3333" y="514.333"/>
      <point x="44" y="531" type="curve"/>
      <point x="121" y="546" type="line"/>
      <point x="127" y="529.333"/>
      <point x="132" y="509.167"/>
      <point x="136" y="485.5" type="curve" smooth="yes"/>
      <point x="140" y="461.833"/>
      <point x="143" y="437.167"/>
      <point x="145" y="411.5" type="curve" smooth="yes"/>
      <point x="147" y="385.833"/>
      <point x="148.333" y="361.5"/>
      <point x="149" y="338.5" type="curve" smooth="yes"/>
      <point x="149.667" y="315.5"/>
      <point x="150" y="296.333"/>
      <point x="150" y="281" type="curve" smooth="yes"/>
      <point x="150" y="-40" type="line" smooth="yes"/>
      <point x="150" y="-82"/>
      <point x="154.333" y="-113.167"/>
      <point x="163" y="-133.5" type="curve" smooth="yes"/>
      <point x="171.667" y="-153.833"/>
      <point x="184.333" y="-167.167"/>
      <point x="201" y="-173.5" type="curve" smooth="yes"/>
      <point x="217.667" y="-179.833"/>
      <point x="237.667" y="-183"/>
      <point x="261" y="-183" type="curve" smooth="yes"/>
      <point x="283.667" y="-183"/>
      <point x="308.667" y="-182"/>
      <point x="336" y="-180" type="curve" smooth="yes"/>
      <point x="363.333" y="-178"/>
      <point x="390.667" y="-175.167"/>
      <point x="418" y="-171.5" type="curve" smooth="yes"/>
      <point x="445.333" y="-167.833"/>
      <point x="469.667" y="-163"/>
      <point x="491" y="-157" type="curve"/>
      <point x="500" y="-203" type="line"/>
      <point x="458.667" y="-214.333"/>
      <point x="415.5" y="-223.167"/>
      <point x="370.5" y="-229.5" type="curve" smooth="yes"/>
      <point x="325.5" y="-235.833"/>
      <point x="284" y="-239"/>
    </contour>
  </outline>
</glyph>
<glyph name="uni196A" format="2">
  <advance width="549"/>
  <unicode hex="196A"/>
  <anchor x="424" y="0" name="U"/>
  <outline>
    <contour>
      <point x="322" y="-264" type="curve" smooth="yes"/>
      <point x="268.667" y="-264"/>
      <point x="224.833" y="-255"/>
      <point x="190.5" y="-237" type="curve" smooth="yes"/>
      <point x="156.167" y="-219"/>
      <point x="129.333" y="-193.167"/>
      <point x="110" y="-159.5" type="curve" smooth="yes"/>
      <point x="90.6667" y="-125.833"/>
      <point x="76.6667" y="-85.3333"/>
      <point x="68" y="-38" type="curve" smooth="yes"/>
      <point x="59.3333" y="9.33333"/>
      <point x="54" y="62.5"/>
      <point x="52" y="121.5" type="curve" smooth="yes"/>
      <point x="50" y="180.5"/>
      <point x="49" y="244"/>
      <point x="49" y="312" type="curve" smooth="yes"/>
      <point x="49" y="526" type="line" smooth="yes"/>
      <point x="49" y="572"/>
      <point x="52.8333" y="617.667"/>
      <point x="60.5" y="663" type="curve" smooth="yes"/>
      <point x="68.1667" y="708.333"/>
      <point x="80.5" y="749.5"/>
      <point x="97.5" y="786.5" type="curve" smooth="yes"/>
      <point x="114.5" y="823.5"/>
      <point x="137.167" y="853"/>
      <point x="165.5" y="875" type="curve" smooth="yes"/>
      <point x="193.833" y="897"/>
      <point x="229" y="908"/>
      <point x="271" y="908" type="curve" smooth="yes"/>
      <point x="352.333" y="908"/>
      <point x="410.833" y="870.167"/>
      <point x="446.5" y="794.5" type="curve" smooth="yes"/>
      <point x="482.167" y="718.833"/>
      <point x="500" y="602.333"/>
      <point x="500" y="445" type="curve" smooth="yes"/>
      <point x="500" y="405"/>
      <point x="499.833" y="363.667"/>
      <point x="499.5" y="321" type="curve" smooth="yes"/>
      <point x="499.167" y="278.333"/>
      <point x="498.5" y="236.667"/>
      <point x="497.5" y="196" type="curve" smooth="yes"/>
      <point x="496.5" y="155.333"/>
      <point x="495.333" y="117.833"/>
      <point x="494" y="83.5" type="curve" smooth="yes"/>
      <point x="492.667" y="49.1667"/>
      <point x="490.667" y="21"/>
      <point x="488" y="-1" type="curve"/>
      <point x="476.667" y="-3.66667"/>
      <point x="463.167" y="-5.83333"/>
      <point x="447.5" y="-7.5" type="curve" smooth="yes"/>
      <point x="431.833" y="-9.16667"/>
      <point x="416.333" y="-10"/>
      <point x="401" y="-10" type="curve" smooth="yes"/>
      <point x="357.667" y="-10"/>
      <point x="320.833" y="-0.666667"/>
      <point x="290.5" y="18" type="curve" smooth="yes"/>
      <point x="260.167" y="36.6667"/>
      <point x="237.167" y="61.5"/>
      <point x="221.5" y="92.5" type="curve" smooth="yes"/>
      <point x="205.833" y="123.5"/>
      <point x="198" y="157"/>
      <point x="198" y="193" type="curve" smooth="yes"/>
      <point x="198" y="229"/>
      <point x="205.167" y="264"/>
      <point x="219.5" y="298" type="curve" smooth="yes"/>
      <point x="233.833" y="332"/>
      <point x="257" y="361.167"/>
      <point x="289" y="385.5" type="curve" smooth="yes"/>
      <point x="321" y="409.833"/>
      <point x="363.667" y="425"/>
      <point x="417" y="431" type="curve"/>
      <point x="417" y="532.333"/>
      <point x="412.5" y="613.167"/>
      <point x="403.5" y="673.5" type="curve" smooth="yes"/>
      <point x="394.5" y="733.833"/>
      <point x="379.5" y="777.5"/>
      <point x="358.5" y="804.5" type="curve" smooth="yes"/>
      <point x="337.5" y="831.5"/>
      <point x="308.333" y="845"/>
      <point x="271" y="845" type="curve" smooth="yes"/>
      <point x="245.667" y="845"/>
      <point x="224.667" y="838"/>
      <point x="208" y="824" type="curve" smooth="yes"/>
      <point x="191.333" y="810"/>
      <point x="178" y="791.333"/>
      <point x="168" y="768" type="curve" smooth="yes"/>
      <point x="158" y="744.667"/>
      <point x="150.667" y="719.333"/>
      <point x="146" y="692" type="curve" smooth="yes"/>
      <point x="141.333" y="664.667"/>
      <point x="138.333" y="637.333"/>
      <point x="137" y="610" type="curve" smooth="yes"/>
      <point x="135.667" y="582.667"/>
      <point x="135" y="558"/>
      <point x="135" y="536" type="curve" smooth="yes"/>
      <point x="135" y="311" type="line" smooth="yes"/>
      <point x="135" y="228.333"/>
      <point x="136.833" y="155.167"/>
      <point x="140.5" y="91.5" type="curve" smooth="yes"/>
      <point x="144.167" y="27.8333"/>
      <point x="152" y="-25.6667"/>
      <point x="164" y="-69" type="curve" smooth="yes"/>
      <point x="176" y="-112.333"/>
      <point x="194.5" y="-145"/>
      <point x="219.5" y="-167" type="curve" smooth="yes"/>
      <point x="244.5" y="-189"/>
      <point x="278.667" y="-200"/>
      <point x="322" y="-200" type="curve" smooth="yes"/>
      <point x="369.333" y="-200"/>
      <point x="416.167" y="-193.167"/>
      <point x="462.5" y="-179.5" type="curve" smooth="yes"/>
      <point x="508.833" y="-165.833"/>
      <point x="554" y="-149"/>
      <point x="598" y="-129" type="curve"/>
      <point x="598" y="-189" type="line"/>
      <point x="552" y="-211.667"/>
      <point x="505.333" y="-229.833"/>
      <point x="458" y="-243.5" type="curve" smooth="yes"/>
      <point x="410.667" y="-257.167"/>
      <point x="365.333" y="-264"/>
    </contour>
    <contour>
      <point x="408" y="46" type="curve"/>
      <point x="410" y="71.3333"/>
      <point x="411.5" y="101.667"/>
      <point x="412.5" y="137" type="curve" smooth="yes"/>
      <point x="413.5" y="172.333"/>
      <point x="414.333" y="210.333"/>
      <point x="415" y="251" type="curve" smooth="yes"/>
      <point x="415.667" y="291.667"/>
      <point x="416" y="332.667"/>
      <point x="416" y="374" type="curve"/>
      <point x="382.667" y="368"/>
      <point x="356.5" y="356"/>
      <point x="337.5" y="338" type="curve" smooth="yes"/>
      <point x="318.5" y="320"/>
      <point x="305.167" y="298.5"/>
      <point x="297.5" y="273.5" type="curve" smooth="yes"/>
      <point x="289.833" y="248.5"/>
      <point x="286" y="222.333"/>
      <point x="286" y="195" type="curve" smooth="yes"/>
      <point x="286" y="157.667"/>
      <point x="292.5" y="128.167"/>
      <point x="305.5" y="106.5" type="curve" smooth="yes"/>
      <point x="318.5" y="84.8333"/>
      <point x="334.5" y="69.3333"/>
      <point x="353.5" y="60" type="curve" smooth="yes"/>
      <point x="372.5" y="50.6667"/>
      <point x="390.667" y="46"/>
    </contour>
  </outline>
</glyph>
<glyph name="uni1971" format="2">
  <advance width="523"/>
  <unicode hex="1971"/>
  <outline>
    <contour>
      <point x="250" y="-10" type="curve" smooth="yes"/>
      <point x="187.333" y="-10"/>
      <point x="137.333" y="12.5"/>
      <point x="100" y="57.5" type="curve" smooth="yes"/>
      <point x="62.6667" y="102.5"/>
      <point x="44" y="169.333"/>
      <point x="44" y="258" type="curve" smooth="yes"/>
      <point x="44" y="290.667"/>
      <point x="51.1667" y="323.833"/>
      <point x="65.5" y="357.5" type="curve" smooth="yes"/>
      <point x="79.8333" y="391.167"/>
      <point x="99.5" y="422.333"/>
      <point x="124.5" y="451" type="curve" smooth="yes"/>
      <point x="149.5" y="479.667"/>
      <point x="178.167" y="502.667"/>
      <point x="210.5" y="520" type="curve" smooth="yes"/>
      <point x="242.833" y="537.333"/>
      <point x="277" y="546"/>
      <point x="313" y="546" type="curve" smooth="yes"/>
      <point x="353" y="546"/>
      <point x="384.333" y="539"/>
      <point x="407" y="525" type="curve" smooth="yes"/>
      <point x="429.667" y="511"/>
      <point x="445.667" y="494"/>
      <point x="455" y="474" type="curve" smooth="yes"/>
      <point x="464.333" y="454"/>
      <point x="469" y="434.667"/>
      <point x="469" y="416" type="curve" smooth="yes"/>
      <point x="469" y="392"/>
      <point x="462" y="367.667"/>
      <point x="448" y="343" type="curve" smooth="yes"/>
      <point x="434" y="318.333"/>
      <point x="413.667" y="295.667"/>
      <point x="387" y="275" type="curve" smooth="yes"/>
      <point x="360.333" y="254.333"/>
      <point x="327.667" y="237.667"/>
      <point x="289" y="225" type="curve" smooth="yes"/>
      <point x="250.333" y="212.333"/>
      <point x="206.333" y="206"/>
      <point x="157" y="206" type="curve" smooth="yes"/>
      <point x="134" y="206" type="line"/>
      <point x="140.667" y="160"/>
      <point x="155.333" y="123.167"/>
      <point x="178" y="95.5" type="curve" smooth="yes"/>
      <point x="200.667" y="67.8333"/>
      <point x="231.333" y="54"/>
      <point x="270" y="54" type="curve" smooth="yes"/>
      <point x="291.333" y="54"/>
      <point x="314" y="56.8333"/>
      <point x="338" y="62.5" type="curve" smooth="yes"/>
      <point x="362" y="68.1667"/>
      <point x="385" y="75.6667"/>
      <point x="407" y="85" type="curve" smooth="yes"/>
      <point x="429" y="94.3333"/>
      <point x="447" y="104.333"/>
      <point x="461" y="115" type="curve"/>
      <point x="479" y="81" type="line"/>
      <point x="463" y="67"/>
      <point x="442.333" y="53"/>
      <point x="417" y="39" type="curve" smooth="yes"/>
      <point x="391.667" y="25"/>
      <point x="364.5" y="13.3333"/>
      <point x="335.5" y="4" type="curve" smooth="yes"/>
      <point x="306.5" y="-5.33333"/>
      <point x="278" y="-10"/>
    </contour>
    <contour>
      <point x="130" y="262" type="line"/>
      <point x="151" y="262" type="line" smooth="yes"/>
      <point x="193" y="262"/>
      <point x="231.667" y="267"/>
      <point x="267" y="277" type="curve" smooth="yes"/>
      <point x="302.333" y="287"/>
      <point x="330.5" y="302.167"/>
      <point x="351.5" y="322.5" type="curve" smooth="yes"/>
      <point x="372.5" y="342.833"/>
      <point x="383" y="368.667"/>
      <point x="383" y="400" type="curve" smooth="yes"/>
      <point x="383" y="430"/>
      <point x="373.333" y="451.167"/>
      <point x="354" y="463.5" type="curve" smooth="yes"/>
      <point x="334.667" y="475.833"/>
      <point x="313.333" y="482"/>
      <point x="290" y="482" type="curve" smooth="yes"/>
      <point x="238" y="482"/>
      <point x="198.333" y="462.333"/>
      <point x="171" y="423" type="curve" smooth="yes"/>
      <point x="143.667" y="383.667"/>
      <point x="130" y="332.333"/>
      <point x="130" y="269" type="curve" smooth="yes"/>
    </contour>
  </outline>
</glyph>
<glyph name="uni25CC" format="2">
  <advance width="594"/>
  <unicode hex="25CC"/>
  <anchor x="65" y="0" name="U"/>
  <outline>
    <contour>
      <point x="297" y="540" type="curve" smooth="yes"/>
      <point x="304.333" y="540"/>
      <point x="310.5" y="537.5"/>
      <point x="315.5" y="532.5" type="curve" smooth="yes"/>
      <point x="320.5" y="527.5"/>
      <point x="323" y="521.333"/>
      <point x="323" y="514" type="curve" smooth="yes"/>
      <point x="323" y="507.333"/>
      <point x="320.5" y="501.333"/>
      <point x="315.5" y="496" type="curve" smooth="yes"/>
      <point x="310.5" y="490.667"/>
      <point x="304.333" y="488"/>
      <point x="297" y="488" type="curve" smooth="yes"/>
      <point x="290.333" y="488"/>
      <point x="284.333" y="490.667"/>
      <point x="279" y="496" type="curve" smooth="yes"/>
      <point x="273.667" y="501.333"/>
      <point x="271" y="507.333"/>
      <point x="271" y="514" type="curve" smooth="yes"/>
      <point x="271" y="521.333"/>
      <point x="273.667" y="527.5"/>
      <point x="279" y="532.5" type="curve" smooth="yes"/>
      <point x="284.333" y="537.5"/>
      <point x="290.333" y="540"/>
    </contour>
    <contour>
      <point x="213" y="522" type="curve" smooth="yes"/>
      <point x="220.333" y="522"/>
      <point x="226.5" y="519.5"/>
      <point x="231.5" y="514.5" type="curve" smooth="yes"/>
      <point x="236.5" y="509.5"/>
      <point x="239" y="503.333"/>
      <point x="239" y="496" type="curve" smooth="yes"/>
      <point x="239" y="489.333"/>
      <point x="236.5" y="483.333"/>
      <point x="231.5" y="478" type="curve" smooth="yes"/>
      <point x="226.5" y="472.667"/>
      <point x="220.333" y="470"/>
      <point x="213" y="470" type="curve" smooth="yes"/>
      <point x="206.333" y="470"/>
      <point x="200.333" y="472.667"/>
      <point x="195" y="478" type="curve" smooth="yes"/>
      <point x="189.667" y="483.333"/>
      <point x="187" y="489.333"/>
      <point x="187" y="496" type="curve" smooth="yes"/>
      <point x="187" y="503.333"/>
      <point x="189.667" y="509.5"/>
      <point x="195" y="514.5" type="curve" smooth="yes"/>
      <point x="200.333" y="519.5"/>
      <point x="206.333" y="522"/>
    </contour>
    <contour>
      <point x="381" y="522" type="curve" smooth="yes"/>
      <point x="388.333" y="522"/>
      <point x="394.5" y="519.5"/>
      <point x="399.5" y="514.5" type="curve" smooth="yes"/>
      <point x="404.5" y="509.5"/>
      <point x="407" y="503.333"/>
      <point x="407" y="496" type="curve" smooth="yes"/>
      <point x="407" y="489.333"/>
      <point x="404.5" y="483.333"/>
      <point x="399.5" y="478" type="curve" smooth="yes"/>
      <point x="394.5" y="472.667"/>
      <point x="388.333" y="470"/>
      <point x="381" y="470" type="curve" smooth="yes"/>
      <point x="374.333" y="470"/>
      <point x="368.333" y="472.667"/>
      <point x="363" y="478" type="curve" smooth="yes"/>
      <point x="357.667" y="483.333"/>
      <point x="355" y="489.333"/>
      <point x="355" y="496" type="curve" smooth="yes"/>
      <point x="355" y="503.333"/>
      <point x="357.667" y="509.5"/>
      <point x="363" y="514.5" type="curve" smooth="yes"/>
      <point x="368.333" y="519.5"/>
      <point x="374.333" y="522"/>
    </contour>
    <contour>
      <point x="113" y="449" type="curve" smooth="yes"/>
      <point x="113" y="456.333"/>
      <point x="115.667" y="462.5"/>
      <point x="121" y="467.5" type="curve" smooth="yes"/>
      <point x="126.333" y="472.5"/>
      <point x="132.333" y="475"/>
      <point x="139" y="475" type="curve" smooth="yes"/>
      <point x="146.333" y="475"/>
      <point x="152.5" y="472.5"/>
      <point x="157.5" y="467.5" type="curve" smooth="yes"/>
      <point x="162.5" y="462.5"/>
      <point x="165" y="456.333"/>
      <point x="165" y="449" type="curve" smooth="yes"/>
      <point x="165" y="442.333"/>
      <point x="162.5" y="436.333"/>
      <point x="157.5" y="431" type="curve" smooth="yes"/>
      <point x="152.5" y="425.667"/>
      <point x="146.333" y="423"/>
      <point x="139" y="423" type="curve" smooth="yes"/>
      <point x="132.333" y="423"/>
      <point x="126.333" y="425.667"/>
      <point x="121" y="431" type="curve" smooth="yes"/>
      <point x="115.667" y="436.333"/>
      <point x="113" y="442.333"/>
    </contour>
    <contour>
      <point x="429" y="449" type="curve" smooth="yes"/>
      <point x="429" y="456.333"/>
      <point x="431.667" y="462.5"/>
      <point x="437" y="467.5" type="curve" smooth="yes"/>
      <point x="442.333" y="472.5"/>
      <point x="448.333" y="475"/>
      <point x="455" y="475" type="curve" smooth="yes"/>
      <point x="462.333" y="475"/>
      <point x="468.5" y="472.5"/>
      <point x="473.5" y="467.5" type="curve" smooth="yes"/>
      <point x="478.5" y="462.5"/>
      <point x="481" y="456.333"/>
      <point x="481" y="449" type="curve" smooth="yes"/>
      <point x="481" y="442.333"/>
      <point x="478.5" y="436.333"/>
      <point x="473.5" y="431" type="curve" smooth="yes"/>
      <point x="468.5" y="425.667"/>
      <point x="462.333" y="423"/>
      <point x="455" y="423" type="curve" smooth="yes"/>
      <point x="448.333" y="423"/>
      <point x="442.333" y="425.667"/>
      <point x="437" y="431" type="curve" smooth="yes"/>
      <point x="431.667" y="436.333"/>
      <point x="429" y="442.333"/>
    </contour>
    <contour>
      <point x="66" y="375" type="curve" smooth="yes"/>
      <point x="66" y="382.333"/>
      <point x="68.6667" y="388.5"/>
      <point x="74" y="393.5" type="curve" smooth="yes"/>
      <point x="79.3333" y="398.5"/>
      <point x="85.3333" y="401"/>
      <point x="92" y="401" type="curve" smooth="yes"/>
      <point x="99.3333" y="401"/>
      <point x="105.5" y="398.5"/>
      <point x="110.5" y="393.5" type="curve" smooth="yes"/>
      <point x="115.5" y="388.5"/>
      <point x="118" y="382.333"/>
      <point x="118" y="375" type="curve" smooth="yes"/>
      <point x="118" y="368.333"/>
      <point x="115.5" y="362.333"/>
      <point x="110.5" y="357" type="curve" smooth="yes"/>
      <point x="105.5" y="351.667"/>
      <point x="99.3333" y="349"/>
      <point x="92" y="349" type="curve" smooth="yes"/>
      <point x="85.3333" y="349"/>
      <point x="79.3333" y="351.667"/>
      <point x="74" y="357" type="curve" smooth="yes"/>
      <point x="68.6667" y="362.333"/>
      <point x="66" y="368.333"/>
    </contour>
    <contour>
      <point x="476" y="375" type="curve" smooth="yes"/>
      <point x="476" y="382.333"/>
      <point x="478.667" y="388.5"/>
      <point x="484" y="393.5" type="curve" smooth="yes"/>
      <point x="489.333" y="398.5"/>
      <point x="495.333" y="401"/>
      <point x="502" y="401" type="curve" smooth="yes"/>
      <point x="509.333" y="401"/>
      <point x="515.5" y="398.5"/>
      <point x="520.5" y="393.5" type="curve" smooth="yes"/>
      <point x="525.5" y="388.5"/>
      <point x="528" y="382.333"/>
      <point x="528" y="375" type="curve" smooth="yes"/>
      <point x="528" y="368.333"/>
      <point x="525.5" y="362.333"/>
      <point x="520.5" y="357" type="curve" smooth="yes"/>
      <point x="515.5" y="351.667"/>
      <point x="509.333" y="349"/>
      <point x="502" y="349" type="curve" smooth="yes"/>
      <point x="495.333" y="349"/>
      <point x="489.333" y="351.667"/>
      <point x="484" y="357" type="curve" smooth="yes"/>
      <point x="478.667" y="362.333"/>
      <point x="476" y="368.333"/>
    </contour>
    <contour>
      <point x="48" y="291" type="curve" smooth="yes"/>
      <point x="48" y="298.333"/>
      <point x="50.6667" y="304.5"/>
      <point x="56" y="309.5" type="curve" smooth="yes"/>
      <point x="61.3333" y="314.5"/>
      <point x="67.3333" y="317"/>
      <point x="74" y="317" type="curve" smooth="yes"/>
      <point x="81.3333" y="317"/>
      <point x="87.5" y="314.5"/>
      <point x="92.5" y="309.5" type="curve" smooth="yes"/>
      <point x="97.5" y="304.5"/>
      <point x="100" y="298.333"/>
      <point x="100" y="291" type="curve" smooth="yes"/>
      <point x="100" y="284.333"/>
      <point x="97.5" y="278.333"/>
      <point x="92.5" y="273" type="curve" smooth="yes"/>
      <point x="87.5" y="267.667"/>
      <point x="81.3333" y="265"/>
      <point x="74" y="265" type="curve" smooth="yes"/>
      <point x="67.3333" y="265"/>
      <point x="61.3333" y="267.667"/>
      <point x="56" y="273" type="curve" smooth="yes"/>
      <point x="50.6667" y="278.333"/>
      <point x="48" y="284.333"/>
    </contour>
    <contour>
      <point x="494" y="291" type="curve" smooth="yes"/>
      <point x="494" y="298.333"/>
      <point x="496.667" y="304.5"/>
      <point x="502" y="309.5" type="curve" smooth="yes"/>
      <point x="507.333" y="314.5"/>
      <point x="513.333" y="317"/>
      <point x="520" y="317" type="curve" smooth="yes"/>
      <point x="527.333" y="317"/>
      <point x="533.5" y="314.5"/>
      <point x="538.5" y="309.5" type="curve" smooth="yes"/>
      <point x="543.5" y="304.5"/>
      <point x="546" y="298.333"/>
      <point x="546" y="291" type="curve" smooth="yes"/>
      <point x="546" y="284.333"/>
      <point x="543.5" y="278.333"/>
      <point x="538.5" y="273" type="curve" smooth="yes"/>
      <point x="533.5" y="267.667"/>
      <point x="527.333" y="265"/>
      <point x="520" y="265" type="curve" smooth="yes"/>
      <point x="513.333" y="265"/>
      <point x="507.333" y="267.667"/>
      <point x="502" y="273" type="curve" smooth="yes"/>
      <point x="496.667" y="278.333"/>
      <point x="494" y="284.333"/>
    </contour>
    <contour>
      <point x="66" y="207" type="curve" smooth="yes"/>
      <point x="66" y="214.333"/>
      <point x="68.6667" y="220.5"/>
      <point x="74" y="225.5" type="curve" smooth="yes"/>
      <point x="79.3333" y="230.5"/>
      <point x="85.3333" y="233"/>
      <point x="92" y="233" type="curve" smooth="yes"/>
      <point x="99.3333" y="233"/>
      <point x="105.5" y="230.5"/>
      <point x="110.5" y="225.5" type="curve" smooth="yes"/>
      <point x="115.5" y="220.5"/>
      <point x="118" y="214.333"/>
      <point x="118" y="207" type="curve" smooth="yes"/>
      <point x="118" y="200.333"/>
      <point x="115.5" y="194.333"/>
      <point x="110.5" y="189" type="curve" smooth="yes"/>
      <point x="105.5" y="183.667"/>
      <point x="99.3333" y="181"/>
      <point x="92" y="181" type="curve" smooth="yes"/>
      <point x="85.3333" y="181"/>
      <point x="79.3333" y="183.667"/>
      <point x="74" y="189" type="curve" smooth="yes"/>
      <point x="68.6667" y="194.333"/>
      <point x="66" y="200.333"/>
    </contour>
    <contour>
      <point x="476" y="207" type="curve" smooth="yes"/>
      <point x="476" y="214.333"/>
      <point x="478.667" y="220.5"/>
      <point x="484" y="225.5" type="curve" smooth="yes"/>
      <point x="489.333" y="230.5"/>
      <point x="495.333" y="233"/>
      <point x="502" y="233" type="curve" smooth="yes"/>
      <point x="509.333" y="233"/>
      <point x="515.5" y="230.5"/>
      <point x="520.5" y="225.5" type="curve" smooth="yes"/>
      <point x="525.5" y="220.5"/>
      <point x="528" y="214.333"/>
      <point x="528" y="207" type="curve" smooth="yes"/>
      <point x="528" y="200.333"/>
      <point x="525.5" y="194.333"/>
      <point x="520.5" y="189" type="curve" smooth="yes"/>
      <point x="515.5" y="183.667"/>
      <point x="509.333" y="181"/>
      <point x="502" y="181" type="curve" smooth="yes"/>
      <point x="495.333" y="181"/>
      <point x="489.333" y="183.667"/>
      <point x="484" y="189" type="curve" smooth="yes"/>
      <point x="478.667" y="194.333"/>
      <point x="476" y="200.333"/>
    </contour>
    <contour>
      <point x="113" y="133" type="curve" smooth="yes"/>
      <point x="113" y="140.333"/>
      <point x="115.667" y="146.5"/>
      <point x="121" y="151.5" type="curve" smooth="yes"/>
      <point x="126.333" y="156.5"/>
      <point x="132.333" y="159"/>
      <point x="139" y="159" type="curve" smooth="yes"/>
      <point x="146.333" y="159"/>
      <point x="152.5" y="156.5"/>
      <point x="157.5" y="151.5" type="curve" smooth="yes"/>
      <point x="162.5" y="146.5"/>
      <point x="165" y="140.333"/>
      <point x="165" y="133" type="curve" smooth="yes"/>
      <point x="165" y="126.333"/>
      <point x="162.5" y="120.333"/>
      <point x="157.5" y="115" type="curve" smooth="yes"/>
      <point x="152.5" y="109.667"/>
      <point x="146.333" y="107"/>
      <point x="139" y="107" type="curve" smooth="yes"/>
      <point x="132.333" y="107"/>
      <point x="126.333" y="109.667"/>
      <point x="121" y="115" type="curve" smooth="yes"/>
      <point x="115.667" y="120.333"/>
      <point x="113" y="126.333"/>
    </contour>
    <contour>
      <point x="429" y="133" type="curve" smooth="yes"/>
      <point x="429" y="140.333"/>
      <point x="431.667" y="146.5"/>
      <point x="437" y="151.5" type="curve" smooth="yes"/>
      <point x="442.333" y="156.5"/>
      <point x="448.333" y="159"/>
      <point x="455" y="159" type="curve" smooth="yes"/>
      <point x="462.333" y="159"/>
      <point x="468.5" y="156.5"/>
      <point x="473.5" y="151.5" type="curve" smooth="yes"/>
      <point x="478.5" y="146.5"/>
      <point x="481" y="140.333"/>
      <point x="481" y="133" type="curve" smooth="yes"/>
      <point x="481" y="126.333"/>
      <point x="478.5" y="120.333"/>
      <point x="473.5" y="115" type="curve" smooth="yes"/>
      <point x="468.5" y="109.667"/>
      <point x="462.333" y="107"/>
      <point x="455" y="107" type="curve" smooth="yes"/>
      <point x="448.333" y="107"/>
      <point x="442.333" y="109.667"/>
      <point x="437" y="115" type="curve" smooth="yes"/>
      <point x="431.667" y="120.333"/>
      <point x="429" y="126.333"/>
    </contour>
    <contour>
      <point x="213" y="112" type="curve" smooth="yes"/>
      <point x="220.333" y="112"/>
      <point x="226.5" y="109.5"/>
      <point x="231.5" y="104.5" type="curve" smooth="yes"/>
      <point x="236.5" y="99.5"/>
      <point x="239" y="93.3333"/>
      <point x="239" y="86" type="curve" smooth="yes"/>
      <point x="239" y="79.3333"/>
      <point x="236.5" y="73.3333"/>
      <point x="231.5" y="68" type="curve" smooth="yes"/>
      <point x="226.5" y="62.6667"/>
      <point x="220.333" y="60"/>
      <point x="213" y="60" type="curve" smooth="yes"/>
      <point x="206.333" y="60"/>
      <point x="200.333" y="62.6667"/>
      <point x="195" y="68" type="curve" smooth="yes"/>
      <point x="189.667" y="73.3333"/>
      <point x="187" y="79.3333"/>
      <point x="187" y="86" type="curve" smooth="yes"/>
      <point x="187" y="93.3333"/>
      <point x="189.667" y="99.5"/>
      <point x="195" y="104.5" type="curve" smooth="yes"/>
      <point x="200.333" y="109.5"/>
      <point x="206.333" y="112"/>
    </contour>
    <contour>
      <point x="381" y="112" type="curve" smooth="yes"/>
      <point x="388.333" y="112"/>
      <point x="394.5" y="109.5"/>
      <point x="399.5" y="104.5" type="curve" smooth="yes"/>
      <point x="404.5" y="99.5"/>
      <point x="407" y="93.3333"/>
      <point x="407" y="86" type="curve" smooth="yes"/>
      <point x="407" y="79.3333"/>
      <point x="404.5" y="73.3333"/>
      <point x="399.5" y="68" type="curve" smooth="yes"/>
      <point x="394.5" y="62.6667"/>
      <point x="388.333" y="60"/>
      <point x="381" y="60" type="curve" smooth="yes"/>
      <point x="374.333" y="60"/>
      <point x="368.333" y="62.6667"/>
      <point x="363" y="68" type="curve" smooth="yes"/>
      <point x="357.667" y="73.3333"/>
      <point x="355" y="79.3333"/>
      <point x="355" y="86" type="curve" smooth="yes"/>
      <point x="355" y="93.3333"/>
      <point x="357.667" y="99.5"/>
      <point x="363" y="104.5" type="curve" smooth="yes"/>
      <point x="368.333" y="109.5"/>
      <point x="374.333" y="112"/>
    </contour>
    <contour>
      <point x="297" y="94" type="curve" smooth="yes"/>
      <point x="304.333" y="94"/>
      <point x="310.5" y="91.5"/>
      <point x="315.5" y="86.5" type="curve" smooth="yes"/>
      <point x="320.5" y="81.5"/>
      <point x="323" y="75.3333"/>
      <point x="323" y="68" type="curve" smooth="yes"/>
      <point x="323" y="61.3333"/>
      <point x="320.5" y="55.3333"/>
      <point x="315.5" y="50" type="curve" smooth="yes"/>
      <point x="310.5" y="44.6667"/>
      <point x="304.333" y="42"/>
      <point x="297" y="42" type="curve" smooth="yes"/>
      <point x="290.333" y="42"/>
      <point x="284.333" y="44.6667"/>
      <point x="279" y="50" type="curve" smooth="yes"/>
      <point x="273.667" y="55.3333"/>
      <point x="271" y="61.3333"/>
      <point x="271" y="68" type="curve" smooth="yes"/>
      <point x="271" y="75.3333"/>
      <point x="273.667" y="81.5"/>
      <point x="279" y="86.5" type="curve" smooth="yes"/>
      <point x="284.333" y="91.5"/>
      <point x="290.333" y="94"/>
    </contour>
  </outline>
</glyph>
<glyph name="uni3002" format="2">
  <advance width="415"/>
  <unicode hex="3002"/>
  <outline>
    <contour>
      <point x="153" y="-15" type="curve" smooth="yes"/>
      <point x="125.667" y="-15"/>
      <point x="103.167" y="-6.16667"/>
      <point x="85.5" y="11.5" type="curve" smooth="yes"/>
      <point x="67.8333" y="29.1667"/>
      <point x="59" y="51"/>
      <point x="59" y="77" type="curve" smooth="yes"/>
      <point x="59" y="101.667"/>
      <point x="67.8333" y="123"/>
      <point x="85.5" y="141" type="curve" smooth="yes"/>
      <point x="103.167" y="159"/>
      <point x="125.667" y="168"/>
      <point x="153" y="168" type="curve" smooth="yes"/>
      <point x="180.333" y="168"/>
      <point x="202.833" y="159"/>
      <point x="220.5" y="141" type="curve" smooth="yes"/>
      <point x="238.167" y="123"/>
      <point x="247" y="101.667"/>
      <point x="247" y="77" type="curve" smooth="yes"/>
      <point x="247" y="51"/>
      <point x="238.167" y="29.1667"/>
      <point x="220.5" y="11.5" type="curve" smooth="yes"/>
      <point x="202.833" y="-6.16667"/>
      <point x="180.333" y="-15"/>
    </contour>
    <contour>
      <point x="153" y="24" type="curve" smooth="yes"/>
      <point x="168.333" y="24"/>
      <point x="180.833" y="29.1667"/>
      <point x="190.5" y="39.5" type="curve" smooth="yes"/>
      <point x="200.167" y="49.8333"/>
      <point x="205" y="62.3333"/>
      <point x="205" y="77" type="curve" smooth="yes"/>
      <point x="205" y="91.6667"/>
      <point x="200.167" y="104"/>
      <point x="190.5" y="114" type="curve" smooth="yes"/>
      <point x="180.833" y="124"/>
      <point x="168.333" y="129"/>
      <point x="153" y="129" type="curve" smooth="yes"/>
      <point x="138.333" y="129"/>
      <point x="126" y="124"/>
      <point x="116" y="114" type="curve" smooth="yes"/>
      <point x="106" y="104"/>
      <point x="101" y="91.6667"/>
      <point x="101" y="77" type="curve" smooth="yes"/>
      <point x="101" y="62.3333"/>
      <point x="106" y="49.8333"/>
      <point x="116" y="39.5" type="curve" smooth="yes"/>
      <point x="126" y="29.1667"/>
      <point x="138.333" y="24"/>
    </contour>
  </outline>
</glyph>
<glyph name="uni3008" format="2">
  <advance width="381"/>
  <unicode hex="3008"/>
  <outline>
    <contour>
      <point x="286" y="-7" type="line"/>
      <point x="49" y="376" type="line"/>
      <point x="286" y="760" type="line"/>
      <point x="332" y="742" type="line"/>
      <point x="107" y="376" type="line"/>
      <point x="332" y="10" type="line"/>
    </contour>
  </outline>
</glyph>
<glyph name="uni300B" format="2">
  <advance width="576"/>
  <unicode hex="300B"/>
  <outline>
    <contour>
      <point x="290" y="-7" type="line"/>
      <point x="244" y="11" type="line"/>
      <point x="469" y="377" type="line"/>
      <point x="244" y="743" type="line"/>
      <point x="290" y="760" type="line"/>
      <point x="527" y="377" type="line"/>
    </contour>
    <contour>
      <point x="95" y="-7" type="line"/>
      <point x="49" y="11" type="line"/>
      <point x="274" y="377" type="line"/>
      <point x="49" y="743" type="line"/>
      <point x="95" y="760" type="line"/>
      <point x="332" y="377" type="line"/>
    </contour>
  </outline>
</glyph>
<glyph name="uni0301.space" format="2">
  <advance width="441"/>
  <outline>
    <contour>
      <point x="166" y="606" type="line"/>
      <point x="166" y="618" type="line"/>
      <point x="174" y="628.667"/>
      <point x="183.833" y="642.333"/>
      <point x="195.5" y="659" type="curve" smooth="yes"/>
      <point x="207.167" y="675.667"/>
      <point x="218.833" y="693.5"/>
      <point x="230.5" y="712.5" type="curve" smooth="yes"/>
      <point x="242.167" y="731.5"/>
      <point x="252.333" y="749.333"/>
      <point x="261" y="766" type="curve"/>
      <point x="367" y="766" type="line"/>
      <point x="367" y="756" type="line"/>
      <point x="357.667" y="742"/>
      <point x="344.333" y="725.333"/>
      <point x="327" y="706" type="curve" smooth="yes"/>
      <point x="309.667" y="686.667"/>
      <point x="291.667" y="667.833"/>
      <point x="273" y="649.5" type="curve" smooth="yes"/>
      <point x="254.333" y="631.167"/>
      <point x="238" y="616.667"/>
      <point x="224" y="606" type="curve"/>
    </contour>
  </outline>
</glyph>
<glyph name="uni0307.space" format="2">
  <advance width="441"/>
  <outline>
    <contour>
      <point x="221" y="625" type="curve" smooth="yes"/>
      <point x="206.333" y="625"/>
      <point x="194" y="629.667"/>
      <point x="184" y="639" type="curve" smooth="yes"/>
      <point x="174" y="648.333"/>
      <point x="169" y="662.333"/>
      <point x="169" y="681" type="curve" smooth="yes"/>
      <point x="169" y="700.333"/>
      <point x="174" y="714.5"/>
      <point x="184" y="723.5" type="curve" smooth="yes"/>
      <point x="194" y="732.5"/>
      <point x="206.333" y="737"/>
      <point x="221" y="737" type="curve" smooth="yes"/>
      <point x="234.333" y="737"/>
      <point x="246.167" y="732.5"/>
      <point x="256.5" y="723.5" type="curve" smooth="yes"/>
      <point x="266.833" y="714.5"/>
      <point x="272" y="700.333"/>
      <point x="272" y="681" type="curve" smooth="yes"/>
      <point x="272" y="662.333"/>
      <point x="266.833" y="648.333"/>
      <point x="256.5" y="639" type="curve" smooth="yes"/>
      <point x="246.167" y="629.667"/>
      <point x="234.333" y="625"/>
    </contour>
  </outline>
</glyph>
